<?xml version="1.0" encoding="utf-8"?>
<!-- Generator: Adobe Illustrator 27.5.0, SVG Export Plug-In . SVG Version: 6.00 Build 0)  -->
<svg version="1.1" xmlns="http://www.w3.org/2000/svg" xmlns:xlink="http://www.w3.org/1999/xlink" x="0px" y="0px"
	 viewBox="0 0 500 500" style="enable-background:new 0 0 500 500;" xml:space="preserve">
<g id="BACKGROUND">
</g>
<g id="OBJECTS">
	<g>
		<path d="M194.608,339.978c2.889-0.529,5.772-1.089,8.638-1.728c1.386-0.311,2.77-0.637,4.145-0.99
			c1.309-0.339,2.61-0.706,3.906-1.089c0.623-0.165,1.249-0.328,1.861-0.535c0.562-0.19,1.114-0.419,1.651-0.67
			c0.91-0.424,1.852-0.912,2.574-1.629c0.001-0.001,0.002-0.002,0.003-0.003c0.306-0.322,0.579-0.694,0.686-1.136
			c0.107-0.449,0.099-0.932-0.085-1.362c-0.312-0.728-0.885-1.243-1.513-1.701c0.05,0.036,0.099,0.072,0.149,0.107
			c-0.132-0.096-0.262-0.196-0.386-0.303c-0.03-0.033-0.061-0.066-0.088-0.097c-0.022-0.033-0.044-0.063-0.066-0.096
			c-0.011-0.022-0.025-0.047-0.036-0.069c-0.008-0.027-0.019-0.055-0.028-0.08c-0.003-0.011-0.006-0.022-0.008-0.036
			c0-0.005,0-0.011,0-0.016c0-0.025,0-0.052,0.003-0.077c0.003-0.014,0.003-0.025,0.006-0.038c0.008-0.03,0.02-0.063,0.028-0.097
			c0.019-0.039,0.036-0.08,0.055-0.118c0.055-0.091,0.11-0.179,0.168-0.267c0.08-0.099,0.163-0.196,0.248-0.289
			c0.13-0.127,0.262-0.248,0.4-0.367c0.372-0.287,0.761-0.543,1.16-0.788c1.318-0.777,2.698-1.428,4.099-2.048
			c3.264-1.411,6.613-2.63,9.942-3.878c2.773-1.042,5.546-2.081,8.305-3.162c2.894-1.135,5.753-2.376,8.575-3.682
			c2.63-1.219,5.232-2.486,7.803-3.826c1.26-0.659,2.528-1.304,3.773-1.99c1.326-0.728,2.627-1.491,3.917-2.271v0.003
			c0.003-0.003,0.006-0.003,0.008-0.006c0,0,0.003-0.003,0.005-0.003c1.069-0.645,2.133-1.296,3.186-1.96
			c1.152-0.725,2.288-1.472,3.404-2.255c0.981-0.689,1.963-1.398,2.828-2.238c0.32-0.309,0.648-0.662,0.819-1.078
			c0.135-0.325,0.218-0.667,0.171-1.023c-0.049-0.389-0.215-0.747-0.474-1.042c-0.436-0.488-1.028-0.791-1.557-1.161
			c-0.182-0.138-0.358-0.281-0.524-0.436c-0.044-0.044-0.085-0.091-0.127-0.138c-0.025-0.033-0.05-0.069-0.075-0.105
			c-0.008-0.019-0.016-0.036-0.027-0.052c-0.003-0.011-0.008-0.022-0.011-0.033c0-0.003,0-0.006-0.003-0.006
			c0-0.008,0-0.017,0-0.025c0-0.003,0-0.008,0-0.014c0.003-0.011,0.003-0.019,0.006-0.027c0.011-0.036,0.022-0.069,0.033-0.102
			c0.041-0.102,0.088-0.204,0.141-0.303c0.069-0.121,0.144-0.24,0.221-0.353l0.003-0.003c0.088-0.11,0.18-0.218,0.273-0.32
			c0.353-0.353,0.741-0.667,1.13-0.978c1.475-1.163,2.977-2.293,4.446-3.465l-0.003,0.003c0.025-0.019,0.049-0.041,0.077-0.06
			c0.006-0.005,0.011-0.008,0.014-0.014c0,0.003,0,0.003,0,0.003c1.251-0.992,2.481-2.015,3.688-3.059
			c2.128-1.841,4.134-3.829,6.083-5.857c1.833-1.913,3.597-3.898,5.16-6.036l-0.003,0.003c0.242-0.331,0.485-0.664,0.716-0.998
			c0.75-1.097,1.453-2.224,2.112-3.376c0.758-1.323,1.497-2.657,2.139-4.044c0.587-1.265,1.152-2.541,1.646-3.848
			c0.499-1.312,0.951-2.643,1.345-3.991c0.402-1.378,0.763-2.773,1.039-4.184c0.256-1.318,0.444-2.652,0.554-3.991
			c0.199-2.351,0.185-4.716-0.005-7.067c-0.019-0.243-0.245-0.425-0.485-0.403c-0.223,0.022-0.386,0.207-0.402,0.427
			c-0.074,1.122-0.143,2.249-0.248,3.368c-0.242,2.382-0.642,4.735-1.177,7.067c-0.003,0.011-0.006,0.022-0.008,0.033
			c-0.003,0.022-0.008,0.044-0.014,0.066c0-0.003,0-0.003,0-0.003c-0.416,1.734-0.923,3.448-1.546,5.119
			c-0.031,0.074-0.061,0.143-0.086,0.223c-0.49,1.268-1.034,2.517-1.593,3.76c-0.598,1.323-1.229,2.63-1.918,3.911
			c-1.555,2.861-3.327,5.601-5.232,8.241c-1.737,2.337-3.611,4.559-5.623,6.662c0.031-0.031,0.058-0.061,0.088-0.091
			c-0.088,0.094-0.179,0.187-0.27,0.281c0.031-0.033,0.061-0.063,0.088-0.094c-0.99,1.025-2.007,2.026-3.051,2.996
			c-0.985,0.914-2.011,1.782-3.06,2.624c-1.215,0.958-2.445,1.893-3.71,2.784c-0.546,0.386-1.086,0.772-1.624,1.166
			c-0.505,0.369-1.02,0.742-1.475,1.172c-0.725,0.686-1.436,1.486-1.629,2.495c-0.16,0.843,0.119,1.761,0.631,2.434
			c0.303,0.4,0.664,0.717,1.072,1.006c0.085,0.061,0.171,0.119,0.256,0.179c-0.044,0.039-0.091,0.077-0.135,0.113
			c-1.13,0.882-2.31,1.706-3.514,2.483c-1.349,0.872-2.694,1.752-4.07,2.584c-1.773,1.062-3.58,2.064-5.385,3.072
			c-5.077,2.836-10.301,5.408-15.62,7.757c0.011-0.005,0.022-0.011,0.033-0.017c-0.221,0.097-0.441,0.193-0.661,0.289
			c0.052-0.022,0.102-0.044,0.154-0.066c-1.345,0.584-2.693,1.166-4.044,1.742c-2.704,1.155-5.444,2.232-8.181,3.308
			c-2.61,1.028-5.237,2.026-7.828,3.101c-1.372,0.568-2.74,1.16-4.055,1.85c-1.215,0.637-2.439,1.318-3.484,2.216
			c-0.543,0.469-1.022,1.058-1.29,1.728c-0.276,0.689-0.281,1.464-0.017,2.158c0.196,0.513,0.518,0.962,0.882,1.37
			c0.179,0.204,0.369,0.394,0.546,0.598c-0.019,0.017-0.041,0.036-0.061,0.052c-0.154,0.119-0.314,0.229-0.479,0.334
			c-0.342,0.198-0.697,0.369-1.056,0.529c-0.843,0.361-1.698,0.684-2.555,1.001c-0.821,0.3-1.662,0.543-2.5,0.788
			c0.019-0.006,0.036-0.011,0.052-0.017c-2.164,0.634-4.346,1.224-6.533,1.786c-2.867,0.741-5.744,1.433-8.644,2.045
			c-3.003,0.635-6.025,1.196-9.055,1.691c-1.066,0.169-2.136,0.333-3.205,0.481c-2.969,0.413-5.943,0.73-8.93,0.959
			c-2.867,0.223-5.736,0.306-8.606,0.394c0.003,0,0.006,0,0.008,0c-1.213,0.036-2.423,0.025-3.633,0.058
			c-0.504,0.011-1.009,0.027-1.513,0.072c-0.179,0.014-0.397,0.047-0.466,0.24c-0.055,0.157,0.099,0.262,0.221,0.314
			c0.273,0.116,0.598,0.138,0.888,0.165c1.381,0.138,2.778,0.19,4.165,0.234c0.995,0.03,1.99,0.044,2.982,0.044
			c0.499,0,0.995-0.003,1.494-0.011c2.971-0.047,5.94-0.201,8.898-0.466c1.384-0.124,2.762-0.273,4.143-0.424
			c1.522-0.168,3.043-0.331,4.559-0.529C188.499,341.058,191.556,340.537,194.608,339.978z"/>
		<path d="M226.642,349.188c2.878-0.777,5.744-1.582,8.603-2.423h-0.003c4.881-1.436,9.733-2.991,14.529-4.694
			c5.617-1.996,11.166-4.193,16.626-6.591c2.646-1.158,5.264-2.393,7.85-3.682c2.643-1.315,5.27-2.668,7.858-4.096
			c5.111-2.814,10.113-5.841,14.885-9.201c2.437-1.717,4.84-3.487,7.119-5.411c1.147-0.968,2.269-1.957,3.357-2.988
			c1.036-0.979,2.045-1.99,3.029-3.024c0.981-1.028,1.946-2.073,2.869-3.156c0.444-0.518,0.879-1.045,1.295-1.588
			c0.438-0.571,0.879-1.152,1.235-1.781c0.378-0.675,0.739-1.447,0.471-2.227c-0.163-0.479-0.689-0.868-1.202-0.86
			c-0.292,0.008-0.568,0.066-0.843,0.168c-0.397,0.143-0.775,0.331-1.166,0.485c-0.391,0.154-0.786,0.298-1.183,0.422
			c-0.16,0.044-0.317,0.08-0.479,0.11c-0.088,0.011-0.179,0.019-0.27,0.028c-0.063,0-0.126-0.003-0.19-0.008
			c-0.05-0.005-0.102-0.014-0.151-0.022c-0.039-0.011-0.074-0.022-0.113-0.033c-0.016-0.008-0.033-0.017-0.049-0.022
			c-0.003-0.003-0.005-0.005-0.008-0.008c0-0.011-0.003-0.022-0.003-0.033c0-0.025,0.003-0.052,0.003-0.077
			c0.008-0.063,0.019-0.13,0.03-0.193c0.017-0.063,0.036-0.13,0.061-0.196c0.058-0.141,0.124-0.276,0.193-0.408
			c0.218-0.38,0.46-0.741,0.716-1.097c0.62-0.841,1.279-1.651,1.932-2.467c0.799-0.995,1.596-1.993,2.362-3.013
			c1.538-2.045,3.023-4.129,4.366-6.307c0.703-1.144,1.351-2.321,1.971-3.512c0.647-1.243,1.249-2.514,1.794-3.807
			c0.524-1.237,1.023-2.5,1.395-3.795c0.091-0.323,0.185-0.651,0.245-0.981c0.047-0.259,0.099-0.529,0.094-0.794
			c-0.003-0.163,0.003-0.35-0.064-0.502c-0.027-0.066-0.058-0.138-0.116-0.185c-0.025-0.019-0.05-0.038-0.074-0.049
			c-0.022-0.011-0.044-0.017-0.066-0.019c-0.088-0.014-0.179,0.017-0.242,0.088c-0.069,0.08-0.11,0.182-0.152,0.278
			c-0.069,0.163-0.135,0.325-0.198,0.491c-0.182,0.449-0.375,0.896-0.579,1.337c-0.438,0.945-0.915,1.866-1.406,2.787
			c-1.009,1.827-2.076,3.619-3.217,5.361c-1.152,1.761-2.373,3.476-3.608,5.179c0.033-0.044,0.066-0.091,0.102-0.135
			c-0.099,0.135-0.198,0.27-0.297,0.405c0.033-0.047,0.066-0.091,0.099-0.138c-0.055,0.077-0.11,0.151-0.165,0.229v-0.003
			c-1.502,2.045-3.095,4.019-4.603,6.064c-0.391,0.529-0.783,1.061-1.166,1.599c-0.394,0.551-0.774,1.113-1.08,1.72
			c-0.3,0.592-0.557,1.246-0.568,1.921c-0.011,0.711,0.187,1.439,0.783,1.891c0.369,0.279,0.794,0.491,1.254,0.568
			c0.444,0.074,0.89,0.049,1.334-0.022c0.422-0.069,0.838-0.182,1.243-0.323c0.052-0.016,0.105-0.036,0.157-0.058
			c-0.019,0.028-0.036,0.052-0.055,0.08c0.005-0.006,0.008-0.011,0.014-0.017c-0.008,0.011-0.016,0.022-0.025,0.033
			c0,0.003-0.003,0.003-0.003,0.005c-0.02,0.022-0.036,0.047-0.055,0.069c-0.003,0.006-0.003,0.008-0.005,0.014v-0.003
			c0,0.003-0.003,0.003-0.003,0.005l-0.003,0.003c-0.022,0.03-0.044,0.061-0.063,0.088c0,0,0-0.003,0-0.005
			c-1.197,1.612-2.53,3.112-3.912,4.569c-2.265,2.337-4.655,4.555-7.191,6.597c0.008-0.006,0.016-0.011,0.025-0.017
			c-0.027,0.022-0.052,0.041-0.08,0.063c-0.014,0.011-0.028,0.022-0.041,0.033c0.003-0.003,0.008-0.008,0.011-0.011
			c-0.13,0.105-0.259,0.21-0.389,0.309c-0.027,0.022-0.052,0.041-0.077,0.064c0,0,0,0,0.003-0.003
			c-4.132,3.245-8.524,6.123-13.009,8.853c-2.933,1.746-5.918,3.418-8.948,4.993c-5.23,2.712-10.499,5.347-15.892,7.723
			c-3.592,1.548-7.212,3.037-10.878,4.402c-2.831,1.056-5.675,2.076-8.545,3.024c-2.833,0.934-5.677,1.813-8.536,2.662
			c-3.803,1.11-7.625,2.129-11.423,3.245c0,0,0,0,0.003,0c-2.332,0.684-4.675,1.306-7.007,1.99c0.052-0.014,0.105-0.03,0.16-0.044
			c-0.824,0.24-1.643,0.485-2.464,0.73c-2.613,0.783-5.259,1.502-7.759,2.61c-0.579,0.256-1.155,0.524-1.706,0.832
			c-0.576,0.323-1.13,0.67-1.585,1.152c-0.35,0.37-0.637,0.852-0.722,1.359c-0.063,0.391-0.052,0.769,0.053,1.149
			c0.127,0.4,0.347,0.764,0.675,1.034c0.292,0.245,0.626,0.427,0.981,0.568c0.257,0.102,0.521,0.179,0.788,0.254
			c-0.022,0.011-0.047,0.022-0.072,0.033c0.003,0,0.003,0,0.006,0c-1.105,0.471-2.246,0.855-3.396,1.199
			c-1.756,0.51-3.547,0.915-5.353,1.213c-2.406,0.375-4.848,0.568-7.282,0.648c-0.7,0.019-1.398,0.03-2.092,0.039
			c-0.361,0.003-0.722,0.003-1.08,0c-0.309,0-0.618,0-0.924,0.003c-0.267,0.003-0.499,0.198-0.51,0.477
			c-0.008,0.248,0.171,0.455,0.413,0.502c0.601,0.116,1.218,0.171,1.83,0.221c0.596,0.05,1.193,0.077,1.792,0.097
			c0.695,0.025,1.392,0.039,2.086,0.039c0.626,0,1.249-0.011,1.872-0.039c2.103-0.083,4.203-0.295,6.274-0.662
			c1.312-0.232,2.61-0.529,3.9-0.863c1.274-0.328,2.569-0.708,3.74-1.315c0.234-0.118,0.461-0.248,0.684-0.383
			c0.176-0.108,0.358-0.223,0.512-0.367c0.235-0.215,0.45-0.493,0.496-0.816c0.05-0.353-0.036-0.692-0.27-0.962
			c-0.27-0.311-0.681-0.438-1.067-0.535c-0.325-0.077-0.65-0.135-0.973-0.207c-0.105-0.03-0.206-0.063-0.306-0.099
			c-0.13-0.05-0.253-0.105-0.377-0.168c-0.085-0.047-0.168-0.097-0.248-0.152c-0.033-0.028-0.066-0.055-0.096-0.083
			c-0.022-0.019-0.041-0.041-0.061-0.063c-0.011-0.017-0.025-0.033-0.036-0.05c-0.006-0.008-0.008-0.016-0.014-0.022
			c-0.003-0.008-0.005-0.016-0.008-0.025c0-0.014-0.003-0.025-0.003-0.039c0-0.003,0-0.008,0-0.014
			c0.003-0.008,0.003-0.016,0.006-0.025c0.003-0.008,0.005-0.019,0.008-0.027c0.011-0.019,0.025-0.039,0.036-0.055
			c0.03-0.038,0.061-0.074,0.094-0.11c0.069-0.066,0.138-0.127,0.209-0.19c0.077-0.055,0.154-0.107,0.237-0.16
			c0.374-0.215,0.769-0.391,1.165-0.566c1.349-0.58,2.744-1.044,4.135-1.51c1.474-0.49,2.951-0.967,4.438-1.409
			c1.01-0.296,2.027-0.585,3.04-0.873c1.389-0.397,2.773-0.808,4.162-1.194C223.911,349.916,225.278,349.558,226.642,349.188z"/>
		<path d="M324.272,323.58c-0.885,0.699-1.78,1.38-2.689,2.047c-0.926,0.678-1.871,1.323-2.828,1.954
			c-1.731,1.144-3.479,2.258-5.254,3.333c0.003-0.003,0.003-0.003,0.005-0.005c-0.24,0.146-0.48,0.289-0.716,0.433
			c0.011-0.008,0.025-0.016,0.036-0.025c-1.105,0.664-2.214,1.323-3.327,1.971c-1.935,1.125-3.955,2.106-5.948,3.123
			c-0.471,0.24-0.945,0.477-1.417,0.722c-0.242,0.127-0.482,0.259-0.716,0.402c-0.149,0.091-0.303,0.19-0.427,0.314
			c-0.287,0.278-0.538,0.675-0.471,1.097c0.033,0.207,0.088,0.397,0.206,0.571c0.119,0.168,0.303,0.331,0.496,0.408
			c0.369,0.149,0.764,0.179,1.155,0.215c-0.003,0-0.003-0.003-0.005-0.003c0.182,0.019,0.358,0.038,0.537,0.072
			c0.036,0.008,0.072,0.019,0.107,0.03c0.091,0.039,0.176,0.083,0.265,0.124c0.099,0.049,0.21,0.082,0.317,0.118
			c0.069,0.028,0.138,0.058,0.207,0.091c0.03,0.019,0.064,0.039,0.094,0.058c0.022,0.019,0.047,0.039,0.072,0.061
			c0.008,0.008,0.016,0.019,0.025,0.028c0.017,0.022,0.03,0.044,0.044,0.066c0.019,0.033,0.036,0.069,0.055,0.102
			c0.017,0.047,0.033,0.091,0.05,0.138c0.008,0.033,0.016,0.069,0.022,0.105c0.008,0.05,0.011,0.102,0.017,0.155
			c-0.003,0.063-0.003,0.127-0.006,0.193c-0.008,0.063-0.02,0.124-0.03,0.187c-0.02,0.072-0.041,0.143-0.064,0.215
			c-0.05,0.116-0.102,0.232-0.16,0.345c-0.064,0.108-0.13,0.212-0.199,0.314c-0.121,0.16-0.251,0.314-0.386,0.463
			c-0.273,0.284-0.568,0.54-0.874,0.788c-0.976,0.755-2.018,1.419-3.076,2.053c0.044-0.025,0.085-0.05,0.129-0.074
			c-0.052,0.033-0.105,0.064-0.157,0.094c0.008-0.006,0.02-0.011,0.031-0.019c-0.355,0.215-0.717,0.425-1.078,0.631
			c-2.04,1.16-4.115,2.249-6.207,3.305c-1.097,0.554-2.205,1.081-3.316,1.607c-1.012,0.474-2.023,0.945-3.049,1.4
			c-0.005,0.003-0.011,0.006-0.017,0.008c0,0,0,0-0.003,0c-0.003,0-0.005,0.003-0.008,0.003c-0.008,0.003-0.014,0.006-0.02,0.008
			c-0.008,0.006-0.017,0.008-0.025,0.011c-0.003,0-0.003,0.003-0.006,0.003h0.003c-0.121,0.05-0.243,0.102-0.364,0.157
			c-0.259,0.113-0.515,0.226-0.777,0.339c-4.297,1.855-8.569,3.771-12.908,5.524c-1.075,0.433-2.15,0.876-3.233,1.287
			c-1.067,0.405-2.136,0.799-3.203,1.205c-0.48,0.185-0.978,0.367-1.427,0.617c-0.257,0.146-0.51,0.323-0.637,0.604
			c-0.152,0.328-0.096,0.758,0.168,1.017c0.358,0.347,0.846,0.353,1.312,0.411c0.402,0.049,0.802,0.108,1.196,0.193
			c0.369,0.096,0.733,0.212,1.092,0.347c0.237,0.097,0.471,0.201,0.697,0.317c0.074,0.041,0.146,0.085,0.218,0.132
			c0.041,0.03,0.08,0.063,0.118,0.096c0.008,0.011,0.017,0.019,0.025,0.027c0.003,0.005,0.005,0.008,0.008,0.014
			c0,0.003,0,0.006,0,0.008c0,0.033,0,0.066,0,0.099c-0.011,0.077-0.022,0.154-0.039,0.232c-0.036,0.127-0.074,0.251-0.118,0.375
			c-0.036,0.085-0.072,0.165-0.11,0.248c-0.033,0.055-0.066,0.108-0.099,0.16c-0.066,0.083-0.135,0.165-0.207,0.245
			c-0.14,0.138-0.287,0.265-0.438,0.391c-0.237,0.179-0.477,0.345-0.73,0.502c0.003,0,0.003,0,0.003,0
			c-0.003,0-0.003,0.003-0.005,0.003h0.003c-0.003,0-0.003,0-0.005,0.003c-0.003,0.003-0.006,0.003-0.008,0.005
			c-0.009,0.003-0.014,0.008-0.019,0.011c-0.783,0.458-1.585,0.857-2.415,1.227c0.044-0.019,0.088-0.039,0.132-0.055
			c-0.049,0.022-0.099,0.041-0.149,0.064c0.006-0.003,0.011-0.005,0.017-0.008c-0.063,0.027-0.124,0.058-0.187,0.085
			c0.019-0.008,0.039-0.019,0.055-0.028c-2.062,0.888-4.167,1.673-6.293,2.404c-2.183,0.749-4.383,1.454-6.597,2.112
			c-0.921,0.27-1.843,0.533-2.769,0.785c-4.846,1.307-9.763,2.307-14.716,3.112c0,0,0.003,0,0.006,0
			c-2.092,0.328-4.187,0.628-6.284,0.907c-1.02,0.138-2.04,0.273-3.062,0.4c-0.485,0.061-0.967,0.124-1.453,0.193
			c-0.204,0.027-0.411,0.049-0.612,0.094c-0.061,0.014-0.116,0.025-0.171,0.05c-0.091-0.008-0.185,0.047-0.185,0.163
			c0,0.094,0.055,0.152,0.132,0.176c0.127,0.102,0.314,0.124,0.466,0.141c0.378,0.047,0.758,0.05,1.136,0.052
			c0.086,0.003,0.168,0.003,0.254,0.003c0.664,0,1.334-0.028,1.998-0.063c2.409-0.119,4.81-0.339,7.202-0.626
			c2.517-0.3,5.014-0.728,7.506-1.182c2.403-0.438,4.801-0.926,7.183-1.464c2.393-0.537,4.766-1.141,7.117-1.833
			c-0.006,0.003-0.008,0.003-0.014,0.006c0.091-0.025,0.179-0.052,0.27-0.077c-0.006,0-0.011,0.003-0.017,0.003
			c0.028-0.008,0.055-0.014,0.083-0.022c0.014-0.005,0.025-0.008,0.039-0.014c-0.005,0.003-0.008,0.003-0.014,0.005
			c0.187-0.055,0.372-0.11,0.559-0.168c2.271-0.67,4.537-1.37,6.762-2.191c1.13-0.419,2.249-0.868,3.352-1.362
			c1.067-0.477,2.111-1.036,3.026-1.767c0.901-0.725,1.61-1.761,1.847-2.905c0.105-0.496,0.091-1.02-0.102-1.494
			c-0.185-0.452-0.48-0.882-0.877-1.177c-0.405-0.303-0.854-0.554-1.348-0.684c-0.074-0.019-0.146-0.036-0.22-0.052
			c0.212-0.077,0.425-0.157,0.634-0.237c1.08-0.405,2.167-0.796,3.25-1.196c2.186-0.81,4.369-1.626,6.527-2.508
			c4.377-1.792,8.746-3.614,13.021-5.637c2.158-1.023,4.291-2.1,6.4-3.219c2.031-1.075,4.063-2.18,5.978-3.451
			c0.984-0.651,1.963-1.384,2.605-2.39c0.391-0.612,0.631-1.276,0.681-2.001c0.036-0.532-0.042-1.105-0.234-1.604
			c-0.19-0.491-0.502-0.954-0.926-1.274c-0.226-0.168-0.463-0.317-0.714-0.441c0.686-0.331,1.373-0.664,2.051-1.012
			c1.745-0.885,3.462-1.836,5.135-2.853c1.946-1.185,3.84-2.453,5.714-3.751c0.951-0.661,1.891-1.34,2.822-2.031
			c1.001-0.744,2.004-1.486,2.977-2.268c0.041-0.033,0.08-0.064,0.119-0.094c0.003-0.003,0.005-0.005,0.011-0.008
			c-0.003,0-0.003,0-0.003,0c0.003,0,0.003-0.003,0.005-0.003c1.45-1.158,2.861-2.362,4.245-3.603
			c1.34-1.196,2.641-2.431,3.884-3.724c-0.003,0-0.003,0.003-0.006,0.003c1.4-1.455,2.726-2.982,3.919-4.609
			c-0.005,0.005-0.011,0.011-0.017,0.017c1.445-1.968,2.715-4.085,3.63-6.351c0.116-0.286,0.009-0.62-0.284-0.752
			c-0.243-0.113-0.582-0.033-0.714,0.212c-0.938,1.705-1.885,3.41-3.026,4.987c-1.14,1.535-2.4,2.969-3.72,4.349
			C329.441,319.18,326.906,321.45,324.272,323.58z"/>
		<path d="M285.744,352.783c-0.008,0.003-0.014,0.005-0.022,0.008c0.003,0,0.003,0,0.003,0
			C285.73,352.789,285.736,352.786,285.744,352.783z"/>
		<path d="M317.046,359.025c-0.007,0.013-0.018,0.024-0.025,0.037c-0.012,0.022-0.018,0.046-0.03,0.068
			C317.01,359.094,317.026,359.061,317.046,359.025z"/>
		<path d="M337.991,330.383c0.011-0.014,0.022-0.03,0.033-0.044c-0.024,0.034-0.049,0.068-0.073,0.101
			c-0.55,0.742-1.114,1.478-1.718,2.175c-0.604,0.698-1.221,1.387-1.855,2.054c-0.036,0.039-0.072,0.077-0.108,0.113
			c0.003-0.005,0.008-0.008,0.011-0.014c-0.022,0.025-0.047,0.049-0.069,0.072c0.005-0.003,0.011-0.008,0.017-0.014
			c-0.375,0.386-0.753,0.769-1.13,1.149c-2.087,2.1-4.272,4.099-6.483,6.067c-2.236,1.99-4.551,3.884-6.88,5.764
			c0.008-0.006,0.014-0.011,0.022-0.017c-0.014,0.011-0.03,0.025-0.044,0.036c-0.003,0.003-0.005,0.003-0.008,0.006
			c0.003,0,0.003-0.003,0.006-0.003c-0.06,0.047-0.124,0.097-0.185,0.146c0.031-0.025,0.061-0.049,0.091-0.074
			c-0.036,0.027-0.069,0.055-0.105,0.083l0.003-0.003c-0.017,0.014-0.03,0.028-0.047,0.038c-0.011,0.008-0.017,0.014-0.025,0.019
			h0.003c-0.088,0.069-0.174,0.138-0.262,0.207c0.03-0.025,0.061-0.05,0.091-0.074c-0.099,0.08-0.198,0.157-0.295,0.237
			c0.03-0.025,0.06-0.05,0.091-0.074c-0.772,0.615-1.549,1.221-2.332,1.825c-0.4,0.309-0.788,0.628-1.169,0.962
			c-0.328,0.298-0.67,0.579-1.017,0.857c0.006-0.003,0.011-0.008,0.017-0.011c-0.339,0.267-0.678,0.535-1.02,0.796
			c-0.584,0.444-1.169,0.887-1.728,1.359c-0.251,0.21-0.502,0.424-0.714,0.673c-0.242,0.281-0.452,0.617-0.413,1.009
			c0.041,0.444,0.389,0.78,0.805,0.898c0.243,0.072,0.494,0.097,0.745,0.11c0.587,0.03,1.177-0.019,1.764-0.036
			c0.336-0.006,0.675-0.003,1.014,0.028c0.165,0.016,0.328,0.041,0.491,0.074c0.047,0.011,0.091,0.025,0.138,0.042
			c0.03,0.014,0.061,0.027,0.091,0.041c0.003,0.003,0.005,0.003,0.005,0.006c0.008,0.008,0.014,0.016,0.02,0.025
			c0.003,0.005,0.005,0.011,0.008,0.017c0.005,0.014,0.011,0.028,0.014,0.041c0.008,0.025,0.014,0.047,0.017,0.072
			c0.003,0.022,0.005,0.044,0.008,0.069c-0.003,0.036-0.003,0.075-0.005,0.113c-0.008,0.069-0.019,0.138-0.036,0.209
			c-0.039,0.141-0.083,0.278-0.132,0.416c-0.066,0.168-0.141,0.328-0.223,0.488c-0.171,0.3-0.361,0.59-0.562,0.874
			c-0.351,0.465-0.727,0.91-1.128,1.328c-0.029,0.03-0.059,0.06-0.088,0.091c-0.921,0.934-1.891,1.8-2.914,2.618
			c0.003,0,0.003-0.003,0.006-0.003c-0.019,0.014-0.039,0.028-0.055,0.041c0.017-0.014,0.036-0.027,0.055-0.044
			c-0.061,0.047-0.116,0.094-0.174,0.138c0.001,0,0.002,0,0.003,0c-1.959,1.54-4.026,2.939-6.149,4.237
			c-0.027,0.014-0.052,0.03-0.08,0.047c0.011-0.008,0.022-0.014,0.033-0.022c-0.898,0.543-1.811,1.061-2.743,1.549
			c-0.899,0.471-1.82,0.899-2.746,1.311c-0.567,0.238-1.144,0.457-1.719,0.682c-2.685,1.047-5.397,2.02-8.153,2.845H289
			c-0.003,0.003-0.003,0.003-0.006,0.003c0,0,0,0,0.003,0c-0.011,0.003-0.022,0.005-0.031,0.008
			c-0.013,0.005-0.027,0.008-0.041,0.014c-0.047,0.011-0.094,0.025-0.14,0.039c0.016-0.003,0.03-0.008,0.044-0.011
			c-0.965,0.279-1.932,0.54-2.908,0.783c-1.067,0.267-2.139,0.521-3.206,0.802c-0.234,0.064-0.391,0.289-0.336,0.532
			c0.047,0.215,0.242,0.347,0.452,0.347c0.008,0,0.016,0,0.025,0c0.176-0.011,0.35-0.022,0.524-0.039
			c1.428-0.141,2.825-0.455,4.212-0.802c1.386-0.347,2.762-0.728,4.126-1.15c1.378-0.427,2.745-0.898,4.099-1.4
			c1.392-0.515,2.784-1.045,4.129-1.673c2.721-1.268,5.38-2.679,7.936-4.256c0.626-0.386,1.246-0.78,1.858-1.188
			c0.62-0.408,1.238-0.824,1.83-1.271c0.595-0.449,1.18-0.912,1.737-1.411c0.524-0.471,1.023-0.969,1.51-1.478
			c0.412-0.428,0.807-0.88,1.169-1.352c0.377-0.493,0.74-0.998,1.036-1.542c0.354-0.656,0.654-1.382,0.606-2.14
			c-0.022-0.378-0.157-0.753-0.381-1.056c-0.22-0.3-0.515-0.496-0.852-0.637c-0.722-0.27-1.53-0.248-2.293-0.226
			c-0.367,0.011-0.736,0.033-1.105,0.058c0.135-0.116,0.276-0.229,0.413-0.342c0.003-0.003,0.006-0.003,0.008-0.005
			c0.549-0.433,1.113-0.846,1.682-1.251c0.579-0.413,1.168-0.802,1.764-1.188c0.609-0.394,1.182-0.849,1.756-1.293
			c0.57-0.441,1.141-0.882,1.706-1.331c0.006-0.003,0.008-0.006,0.014-0.011c0.025-0.019,0.052-0.039,0.077-0.061
			c-0.008,0.008-0.019,0.017-0.027,0.025c0.069-0.055,0.135-0.108,0.204-0.163c0.039-0.03,0.077-0.061,0.113-0.091
			c-0.014,0.011-0.028,0.022-0.041,0.033c0.03-0.025,0.06-0.049,0.091-0.074c0.045-0.036,0.091-0.073,0.138-0.109
			c1.533-1.215,3.033-2.473,4.523-3.739c1.13-0.959,2.238-1.949,3.324-2.96c1.075-1.006,2.133-2.031,3.148-3.092
			c0.014-0.014,0.025-0.028,0.039-0.039c0.011-0.011,0.022-0.025,0.033-0.036c-0.003,0.003-0.006,0.008-0.008,0.011
			c0.047-0.049,0.096-0.099,0.146-0.149c-0.005,0.003-0.008,0.005-0.011,0.008c0.016-0.017,0.033-0.036,0.05-0.052
			c0.008-0.008,0.016-0.017,0.025-0.025c-0.003,0.003-0.003,0.006-0.006,0.008c0.044-0.05,0.088-0.094,0.135-0.143
			c-0.025,0.025-0.05,0.05-0.074,0.075c0.339-0.342,0.664-0.7,0.989-1.059c0.311-0.342,0.617-0.689,0.921-1.042
			c0.615-0.717,1.219-1.444,1.797-2.189c0.915-1.18,1.789-2.395,2.561-3.674c0.394-0.651,0.766-1.318,1.116-1.993
			c0.295-0.568,0.601-1.136,0.822-1.739c0.011-0.022,0.019-0.044,0.033-0.066l0.003-0.003c0.014-0.025,0.025-0.05,0.039-0.075
			c0.047-0.083-0.003-0.193-0.088-0.231c-0.088-0.039-0.182,0-0.229,0.08c-0.022,0.041-0.047,0.083-0.069,0.127
			c-0.328,0.493-0.623,1.009-0.948,1.502C338.791,329.275,338.394,329.832,337.991,330.383z"/>
		<path d="M314.871,361.902c-0.018,0.019-0.038,0.036-0.055,0.054c-0.009,0.009-0.016,0.02-0.025,0.029
			C314.818,361.958,314.843,361.93,314.871,361.902z"/>
		<path d="M320.915,349.182c-0.008,0.006-0.014,0.012-0.022,0.018c-0.023,0.018-0.046,0.038-0.069,0.057
			C320.855,349.232,320.885,349.207,320.915,349.182z"/>
		<path d="M150.006,344.359c-0.036-0.06-0.068-0.124-0.105-0.184c-0.015-0.025-0.032-0.047-0.047-0.072
			C149.904,344.188,149.956,344.273,150.006,344.359z"/>
		<path d="M336.191,351.633c-0.002,0.022-0.008,0.044-0.011,0.066c-0.008,0.084-0.011,0.169-0.02,0.254
			C336.172,351.845,336.18,351.741,336.191,351.633z"/>
		<path d="M337.533,297.454c-0.01-0.022-0.017-0.044-0.026-0.066c-0.018-0.04-0.037-0.079-0.054-0.119
			C337.478,297.33,337.506,297.39,337.533,297.454z"/>
		<path d="M272.847,187.12c0.046,0.029,0.09,0.061,0.135,0.09c0.046,0.029,0.094,0.055,0.14,0.084
			C273.032,187.235,272.938,187.177,272.847,187.12z"/>
		<path d="M256.424,183.872c-0.021-0.01-0.043-0.02-0.064-0.029c-0.075-0.034-0.151-0.068-0.225-0.103
			C256.232,183.784,256.328,183.828,256.424,183.872z"/>
		<path d="M161.564,178.333c0.033-0.012,0.067-0.02,0.1-0.031c0.065-0.023,0.13-0.05,0.195-0.073
			C161.763,178.264,161.663,178.297,161.564,178.333z"/>
		<path d="M117.707,287.234c-0.003-0.032-0.002-0.064-0.005-0.096c-0.005-0.065-0.015-0.129-0.02-0.194
			C117.691,287.041,117.699,287.138,117.707,287.234z"/>
		<path d="M144.48,330.558c0.003-0.019,0.011-0.039,0.014-0.058c0.002-0.013,0.001-0.026,0.003-0.038
			C144.491,330.495,144.485,330.528,144.48,330.558z"/>
		<path d="M140.028,232.358c-0.039,0.01-0.079,0.018-0.118,0.029c-0.004,0.001-0.008,0.003-0.012,0.004
			C139.94,232.38,139.984,232.369,140.028,232.358z"/>
		<path d="M147.055,219.096c0.003,0,0.008,0,0.011,0c-0.005,0-0.011-0.003-0.014-0.003L147.055,219.096z"/>
		<path d="M188.066,190.481c0-0.001-0.001-0.001-0.001-0.002c-0.004-0.008-0.009-0.015-0.013-0.023
			C188.058,190.464,188.061,190.473,188.066,190.481z"/>
		<polygon points="175.423,169.925 175.429,169.928 175.426,169.925 		"/>
		<polygon points="178.546,169.344 178.546,169.341 178.543,169.341 		"/>
		<path d="M377.54,159.057c0.007,0.024,0.014,0.046,0.021,0.07c0.004,0.012,0.008,0.023,0.012,0.035
			C377.562,159.128,377.552,159.093,377.54,159.057z"/>
		<path d="M380.857,179.699c-0.003-0.072-0.003-0.143-0.006-0.215c0.003-0.099-0.003-0.199-0.011-0.298
			c-0.003-0.027-0.003-0.055-0.003-0.083c0,0.023,0,0.046,0,0.069c-0.03-0.797-0.071-1.59-0.124-2.384
			c-0.38-5.744-1.285-11.466-2.947-16.982c-0.039-0.132-0.077-0.265-0.119-0.4c-0.029-0.093-0.057-0.186-0.086-0.28
			c-0.742-2.422-1.595-4.817-2.593-7.143c-0.979-2.271-2.062-4.498-3.343-6.615c0.014,0.022,0.027,0.041,0.041,0.063
			c-0.03-0.047-0.058-0.094-0.088-0.138c-0.017-0.033-0.039-0.066-0.058-0.096c-0.041-0.069-0.083-0.135-0.124-0.204
			c0.025,0.044,0.053,0.085,0.077,0.13c-0.606-0.995-1.246-1.971-1.938-2.908c-0.176-0.24-0.353-0.474-0.532-0.711
			c-0.132-0.174-0.262-0.347-0.402-0.513c-0.13-0.176-0.276-0.342-0.411-0.507c-0.113-0.135-0.226-0.273-0.342-0.405
			c-0.223-0.262-0.452-0.521-0.686-0.774c-0.998-1.092-2.1-2.106-3.285-2.991c-1.169-0.876-2.401-1.662-3.727-2.277
			c-1.477-0.684-3.076-1.185-4.686-1.425c-1.618-0.24-3.302-0.328-4.923-0.083c-1.635,0.245-3.208,0.697-4.727,1.351
			c-2.627,1.127-5.066,2.632-7.392,4.284c-4.904,3.487-9.424,7.503-13.561,11.869c-2.063,2.178-4.027,4.439-5.919,6.76
			c-0.169-1.246-0.361-2.491-0.65-3.714c-1.158-4.942-3.495-9.545-6.621-13.531c-0.89-1.141-1.825-2.249-2.859-3.264
			c-0.981-0.959-1.99-1.883-3.071-2.732c-2.15-1.687-4.517-3.134-7.106-4.044c-1.348-0.474-2.779-0.805-4.212-0.838
			c-1.569-0.036-3.071,0.345-4.468,1.042c-1.216,0.606-2.324,1.48-3.313,2.398c-0.976,0.907-1.844,1.938-2.632,3.01
			c-1.512,2.085-2.793,4.346-4.006,6.616c-0.006,0.012-0.013,0.023-0.019,0.035c-0.036,0.063-0.069,0.13-0.102,0.193
			c0.02-0.036,0.036-0.075,0.055-0.11c-0.121,0.226-0.242,0.455-0.364,0.684c-0.394,0.733-0.78,1.472-1.166,2.21
			c-2.532,4.9-4.757,9.981-6.689,15.147c-0.048,0.128-0.096,0.256-0.145,0.385c0.006-0.016,0.011-0.033,0.016-0.047
			c-0.022,0.055-0.041,0.11-0.061,0.165c0-0.006,0-0.008,0-0.011c0,0.005-0.003,0.008-0.003,0.014
			c-0.008,0.016-0.014,0.036-0.019,0.052c0.003-0.008,0.005-0.017,0.011-0.025c-0.014,0.03-0.025,0.061-0.036,0.094
			c-0.017,0.041-0.033,0.086-0.05,0.13c0.003-0.011,0.008-0.022,0.011-0.036c-0.64,1.668-1.221,3.36-1.778,5.055
			c-0.888,2.685-1.701,5.391-2.417,8.126c-0.369,1.406-0.706,2.82-1.026,4.239c-0.284,1.257-0.529,2.531-0.656,3.815
			c-0.006,0.036-0.008,0.069-0.011,0.105c-0.003,0.019-0.005,0.041-0.008,0.063c0,0,0,0,0,0.003c0,0.003,0,0.008,0,0.011
			c-0.003,0.008-0.003,0.017-0.003,0.028c0,0.004,0,0.008,0,0.011c-0.008,0.066-0.014,0.132-0.022,0.198
			c0.006-0.033,0.008-0.069,0.014-0.105c-0.021,0.226-0.034,0.458-0.04,0.689c-1.608-0.856-3.223-1.696-4.875-2.459
			c-0.201-0.094-0.403-0.188-0.604-0.279c0.014,0.006,0.025,0.011,0.038,0.017c-0.865-0.397-1.734-0.78-2.602-1.16
			c-0.86-0.375-1.728-0.708-2.613-1.02c-0.879-0.309-1.756-0.626-2.629-0.948c-0.634-0.232-1.268-0.463-1.888-0.725
			c0.063-0.036,0.127-0.072,0.19-0.107c1.37-0.764,3.065-1.803,2.988-3.603c-0.066-1.502-1.238-2.632-2.382-3.465
			c-1.155-0.838-2.426-1.497-3.74-2.043c-2.566-1.069-5.259-1.684-7.993-2.144c-2.652-0.447-5.325-0.739-8.007-0.898
			c-2.839-0.168-5.686-0.232-8.528-0.193c-2.817,0.041-5.626,0.218-8.432,0.446c-2.734,0.226-5.45,0.626-8.153,1.089
			c-2.586,0.438-5.16,0.951-7.726,1.497c-0.152,0.033-0.306,0.066-0.458,0.099c-2.263,0.485-4.52,1-6.747,1.629
			c-1.116,0.314-2.235,0.634-3.349,0.967c-0.408,0.121-0.81,0.248-1.215,0.378c-0.176,0.055-0.353,0.113-0.526,0.174
			c-0.168,0.055-0.347,0.102-0.505,0.179c-0.188,0.094-0.352,0.201-0.509,0.315c-0.62-0.418-1.24-0.836-1.878-1.223
			c-0.634-0.386-1.282-0.753-1.91-1.15c-0.072-0.049-0.143-0.099-0.212-0.152c0.011-0.061,0.022-0.121,0.027-0.185
			c0.022-0.262,0.017-0.51-0.025-0.761c0.033-0.471,0.063-0.937,0.041-1.414c-0.039-0.802-0.188-1.585-0.436-2.343
			c-0.212-0.601-0.491-1.174-0.835-1.706c-0.455-0.7-0.957-1.384-1.533-1.985c-0.504-0.526-1.094-0.956-1.715-1.334
			c-0.606-0.372-1.26-0.65-1.946-0.835c-1.072-0.284-2.21-0.333-3.305-0.16c-1.199,0.19-2.302,0.653-3.346,1.262
			c-0.444,0.262-0.879,0.546-1.298,0.846c-0.482,0.347-0.904,0.78-1.282,1.235c-0.739,0.887-1.345,1.877-1.729,2.966
			c-0.179,0.546-0.297,1.1-0.344,1.67c-0.077,1.204,0.124,2.395,0.689,3.467c0.452,0.866,1.078,1.643,1.795,2.304
			c0.378,0.35,0.772,0.689,1.204,0.973c0.576,0.375,1.194,0.637,1.849,0.833c1.042,0.311,2.175,0.389,3.255,0.325
			c0.496-0.03,0.99-0.069,1.48-0.135c0.174-0.022,0.344-0.047,0.515-0.072c0.163,0.091,0.326,0.187,0.482,0.287
			c0.441,0.289,0.858,0.612,1.26,0.951c0.167,0.145,0.312,0.311,0.477,0.458c-0.096,0.018-0.192,0.036-0.287,0.052
			c-0.378,0.066-0.758,0.118-1.138,0.182c-1.717,0.287-3.426,0.656-5.129,1.023c0.019-0.003,0.039-0.008,0.055-0.011
			c-2.832,0.613-5.618,1.369-8.354,2.331c-0.685,0.242-1.371,0.486-2.043,0.767c-2.299,0.97-4.452,2.329-6.445,3.823
			c-1.077,0.805-2.125,1.659-2.927,2.748c-0.879,1.188-1.497,2.555-1.541,4.049c-0.033,1.158,0.237,2.351,1.023,3.236
			c0.364,0.408,0.786,0.764,1.265,1.031c0.151,0.083,0.309,0.157,0.468,0.226c-2.958,1.88-5.529,4.328-8.082,6.72
			c-1.717,1.607-3.371,3.277-4.95,5.022c-0.714,0.791-1.422,1.585-2.114,2.392c-0.345,0.405-0.689,0.81-1.02,1.227
			c-0.161,0.203-0.303,0.417-0.43,0.638c-0.898-0.1-1.801-0.155-2.706-0.172c-0.766-0.014-1.527-0.003-2.288,0.072
			c-0.543,0.052-1.086,0.116-1.626,0.174c-1.119,0.116-2.233,0.284-3.349,0.43c-0.678,0.091-1.359,0.157-2.034,0.262
			c-0.645,0.099-1.282,0.237-1.918,0.372c-0.808,0.16-1.621,0.295-2.445,0.364c-0.091,0.003-0.179,0.006-0.27,0.006
			c-0.066-0.058-0.13-0.116-0.193-0.174c-0.243-0.212-0.479-0.4-0.766-0.557c-0.052-0.025-0.099-0.044-0.152-0.066
			c-0.003-0.003-0.008-0.006-0.014-0.008c-0.411-0.284-0.816-0.557-1.276-0.777c-0.312-0.146-0.64-0.262-0.973-0.358
			c-0.345-0.102-0.711-0.207-1.07-0.24c-1.64-0.163-3.305,0.218-4.713,1.072c-0.915,0.557-1.819,1.246-2.448,2.125
			c-0.623,0.877-1.108,1.874-1.345,2.93c-0.124,0.557-0.193,1.13-0.207,1.698c-0.011,0.551-0.006,1.116,0.088,1.659
			c0.207,1.169,0.763,2.255,1.43,3.228c0.337,0.491,0.744,0.918,1.191,1.312c0.527,0.463,1.097,0.882,1.728,1.188
			c0.485,0.234,1.039,0.358,1.569,0.438c0.333,0.05,0.672,0.077,1.012,0.077c0.11,0,0.22-0.003,0.331-0.011
			c0.951-0.052,1.888-0.27,2.762-0.648c0.821-0.358,1.629-0.824,2.249-1.483c0.579-0.612,1.141-1.307,1.321-2.153
			c0.044-0.204,0.077-0.408,0.099-0.612c0.295-0.047,0.59-0.091,0.888-0.124c0.648-0.014,1.301,0,1.946,0.039
			c1.384,0.105,2.767,0.292,4.146,0.471c1.102,0.143,2.186,0.362,3.274,0.567c-0.381,0.454-0.759,0.911-1.116,1.386
			c-0.976,1.287-1.855,2.646-2.701,4.021c-1.461,2.376-2.833,4.81-4.239,7.219c-1.439,2.464-2.779,4.995-3.975,7.586
			c-0.869,1.883-1.695,3.782-2.431,5.719c-0.954,2.519-1.789,5.088-2.418,7.707c-0.325,1.367-0.537,2.756-0.725,4.148
			c-0.179,1.329-0.29,2.66-0.348,4c0-0.006,0-0.011,0-0.014c-0.069,1.646-0.094,3.379,0.405,4.959
			c0.275,0.877,0.672,1.706,1.204,2.453c0.204,0.289,0.455,0.54,0.711,0.783c0.232,0.215,0.471,0.438,0.739,0.609
			c0.888,0.565,1.938,0.918,2.996,0.703c0.323-0.066,0.629-0.165,0.921-0.295c-0.091,0.84-0.168,1.679-0.256,2.519
			c-0.149,1.406-0.273,2.809-0.322,4.223c-0.093,2.711-0.069,5.427,0.149,8.129c0.201,2.449,0.441,4.893,0.757,7.331
			c0.32,2.456,0.742,4.898,1.216,7.329c0.571,2.913,1.268,5.813,2.089,8.666c0.783,2.723,1.637,5.436,2.594,8.104
			c0.896,2.503,1.952,4.939,3.057,7.359c0.585,1.273,1.182,2.536,1.828,3.779c0.565,1.097,1.138,2.2,1.794,3.241
			c1.359,2.153,2.966,4.129,4.89,5.797c0.57,0.493,1.158,0.951,1.792,1.362c0.54,0.356,1.092,0.708,1.676,0.987
			c1.003,0.477,2.04,0.78,3.129,0.973c0.424,0.069,0.854,0.11,1.282,0.11c0.744,0,1.48-0.127,2.169-0.466
			c0.479-0.237,0.948-0.543,1.309-0.943c0.171-0.191,0.275-0.416,0.407-0.626c0.695,1.369,1.426,2.719,2.212,4.032
			c1.621,2.691,3.458,5.243,5.416,7.698c2.268,2.825,4.749,5.463,7.288,8.046c2.588,2.635,5.218,5.243,8.01,7.665
			c2.859,2.483,5.926,4.815,9.319,6.522c1.365,0.689,2.781,1.279,4.237,1.75c1.163,0.378,2.368,0.697,3.583,0.849
			c1.136,0.141,2.31,0.179,3.426-0.127c1.061-0.292,1.993-0.788,2.85-1.475c0.449-0.361,0.857-0.802,1.204-1.273
			c2.285,2.216,4.807,4.195,7.495,5.899c3.178,2.018,6.497,3.829,9.934,5.369c3.346,1.5,6.775,2.914,10.306,3.925
			c3.167,0.904,6.472,1.604,9.785,1.604c0.204,0,0.408-0.003,0.615-0.008c2.354-0.063,4.926-0.422,6.668-2.169
			c0.791-0.791,1.414-1.781,1.541-2.913c0.058-0.513,0.011-1.028-0.11-1.53c0.394,0.138,0.786,0.273,1.18,0.414
			c1.885,0.667,3.854,0.976,5.838,1.149c1.284,0.113,2.58,0.13,3.867,0.069c1.031-0.052,2.084-0.152,3.084-0.416
			c1.012-0.273,2.045-0.675,2.817-1.411c0.551-0.526,0.907-1.169,1.141-1.885c0.11-0.339,0.185-0.686,0.221-1.039
			c0.887,0.265,1.764,0.571,2.652,0.838c1.907,0.568,3.859,0.992,5.816,1.37c1.836,0.355,3.68,0.661,5.529,0.918
			c3.914,0.54,7.853,0.929,11.803,1.067c2.136,0.074,4.275,0,6.411-0.074c1.795-0.063,3.592-0.143,5.38-0.317
			c2.092-0.204,4.179-0.502,6.232-0.957c2.139-0.474,4.248-1.078,6.318-1.811c3.495-1.235,6.836-2.844,10.003-4.771
			c1.8-1.091,3.498-2.326,5.105-3.688c1.513-1.284,2.955-2.698,4.207-4.242c2.321-2.861,4.06-6.125,5.317-9.581
			c0.932-2.564,1.522-5.224,1.792-7.938c0.055-0.569,0.103-1.138,0.132-1.709c0-0.014,0-0.028,0-0.041
			c0.358,0.199,0.73,0.361,1.111,0.485c1.116,0.361,2.415,0.361,3.512-0.08c0.626-0.251,1.182-0.582,1.703-1.009
			c0.43-0.353,0.783-0.772,1.114-1.213c0.339-0.471,0.639-0.954,0.918-1.469c0.7-1.309,1.202-2.734,1.615-4.159
			c0.568-1.968,0.998-3.966,1.381-5.976c0.656-3.423,1.125-6.91,1.199-10.4c0.074-3.423-0.149-6.888-0.692-10.27
			c-0.322-2.007-0.819-3.969-1.4-5.915c-0.516-1.717-1.111-3.421-1.825-5.066c0.003,0.006,0.006,0.011,0.008,0.017
			c-0.005-0.011-0.008-0.019-0.014-0.03c-0.03-0.069-0.061-0.141-0.091-0.209c0.005,0.014,0.011,0.028,0.017,0.041
			c-0.491-1.114-0.993-2.227-1.527-3.316c-0.248-0.504-0.499-1.012-0.788-1.494c0.802,0.369,1.72,0.634,2.599,0.515
			c0.653-0.091,1.29-0.278,1.819-0.692c0.309-0.24,0.568-0.485,0.791-0.81c0.146-0.221,0.262-0.46,0.375-0.7
			c0.154-0.325,0.287-0.664,0.405-1.003c1.155-3.299,0.364-6.916-0.799-10.099c-1.171-3.2-2.872-6.207-4.631-9.115
			c-1.772-2.93-3.635-5.824-5.639-8.605c-1.127-1.563-2.323-3.073-3.487-4.611c-0.203-0.268-0.395-0.544-0.593-0.816
			c0.406-0.209,0.811-0.422,1.215-0.636c2.307-1.221,4.576-2.514,6.797-3.884c2.197-1.351,4.314-2.82,6.389-4.347
			c2.252-1.656,4.441-3.399,6.574-5.201c2.164-1.83,4.242-3.765,6.202-5.81c0.08-0.085,0.163-0.171,0.242-0.256
			c0.085-0.088,0.171-0.176,0.256-0.267c1.96-2.076,3.837-4.237,5.56-6.516c1.869-2.473,3.628-5.036,5.097-7.767
			c-0.052,0.099-0.105,0.199-0.157,0.298c0.111-0.21,0.223-0.416,0.336-0.626c-0.014,0.025-0.028,0.047-0.041,0.072
			c0.681-1.265,1.326-2.555,1.896-3.873c1.182-2.726,2.15-5.532,2.963-8.385c0.438-1.536,0.837-3.076,1.198-4.626
			c0,0.002,0,0.005,0,0.006c0-0.006,0-0.011,0.003-0.014c0,0-0.001,0.001-0.001,0.001c0-0.001,0-0.002,0-0.004
			c0.003-0.003,0.003-0.005,0.003-0.008c0,0,0,0.003,0,0.005c0.009-0.047,0.019-0.096,0.03-0.141
			c0.025-0.085,0.044-0.176,0.06-0.267c1.089-4.838,1.797-9.774,2.255-14.713c0,0.003,0,0.005,0,0.008
			c0.003-0.047,0.008-0.094,0.011-0.141c0.005-0.036,0.008-0.072,0.011-0.107c0-0.003,0-0.006,0-0.008
			c0.003-0.033,0.008-0.069,0.011-0.105c0,0.003-0.003,0.003-0.003,0.005c0.003-0.03,0.005-0.063,0.008-0.091
			c0,0.003,0,0.003,0,0.006c0.006-0.036,0.008-0.072,0.014-0.107c0.113-1.218,0.207-2.439,0.292-3.658
			c0.204-2.88,0.314-5.772,0.314-8.658C380.928,182.654,380.914,181.177,380.857,179.699z M372.949,160.9
			c0-0.004-0.001-0.008-0.002-0.011c0.002,0.007,0.004,0.013,0.007,0.02C372.952,160.907,372.951,160.903,372.949,160.9z
			 M293.55,133.652c0.151-0.016,0.306-0.033,0.457-0.044c0.24,0,0.477,0.011,0.717,0.028c0.383,0.047,0.761,0.113,1.138,0.193
			c0.444,0.113,0.885,0.243,1.315,0.397c0.772,0.303,1.525,0.651,2.263,1.036c0.799,0.447,1.571,0.937,2.321,1.466
			c1.1,0.816,2.145,1.695,3.142,2.635c0.891,0.874,1.728,1.792,2.517,2.762c0.426,0.542,0.79,1.127,1.189,1.688
			c0.045,0.085,0.098,0.165,0.142,0.25c0.259,0.493,0.479,1.009,0.719,1.513c0.245,0.524,0.491,1.048,0.725,1.574
			c0-0.003,0-0.005,0-0.008c0.025,0.058,0.05,0.113,0.075,0.171c-0.003-0.006-0.006-0.011-0.008-0.017
			c0.405,0.904,0.799,1.814,1.147,2.745c0.333,0.904,0.637,1.825,0.923,2.748c0-0.003,0-0.003,0-0.003
			c0.011,0.03,0.019,0.063,0.03,0.096c0.386,1.282,0.7,2.583,0.94,3.9c0-0.003,0-0.003,0-0.006c0.002,0.009,0.003,0.017,0.005,0.026
			c0,0.002,0.001,0.005,0.001,0.007c0-0.003,0-0.003,0-0.003c0-0.001,0-0.001,0-0.001c0,0.001,0,0.001,0,0.002v0.003
			c0.003,0.006,0.003,0.014,0.003,0.019s0.003,0.011,0.003,0.017c0-0.003,0-0.006,0-0.006c0,0.008,0.003,0.016,0.003,0.025
			c0.003,0.008,0.003,0.017,0.005,0.022c0,0.003,0,0.003,0,0.006c0,0.006,0.003,0.014,0.003,0.019
			c0.003,0.011,0.003,0.019,0.005,0.028c0,0.003,0,0.003,0,0.003c0,0.005,0,0.011,0.003,0.017c0.152,0.951,0.248,1.902,0.298,2.864
			c0,0.025,0,0.049,0.003,0.074c0,0.025,0.003,0.05,0.003,0.075c0-0.017-0.003-0.033-0.003-0.047
			c0.042,1.221-0.022,2.439-0.13,3.658c0,0,0,0,0.003,0c-0.003,0.003-0.003,0.003-0.003,0.006c0,0.005,0,0.011,0,0.014
			c0,0.003,0,0.006,0,0.011c-0.003,0.008-0.003,0.017-0.003,0.025c0-0.003,0-0.003,0-0.003c-0.003,0.011-0.003,0.022-0.006,0.033
			c0,0,0,0,0,0.001c0,0.003,0,0.007-0.003,0.01c0.002-0.002,0.002-0.004,0.002-0.007c-0.008,0.083-0.016,0.166-0.025,0.248
			c-0.645,0.888-1.276,1.786-1.898,2.694c-3.49,5.102-6.693,10.397-9.614,15.844c-1.406,2.624-2.737,5.287-3.986,7.985
			c-1.221,2.638-2.401,5.298-3.437,8.01c0.003,0,0.003-0.003,0.003-0.003c0,0.003,0,0.003-0.003,0.005
			c-0.006,0.014-0.011,0.03-0.017,0.044c-0.025,0.072-0.052,0.143-0.08,0.215c-0.003,0.003-0.003,0.005-0.006,0.011
			c0.003-0.003,0.003-0.003,0.003-0.003c0,0.003-0.003,0.003-0.003,0.006c-0.041,0.105-0.077,0.207-0.116,0.306
			c0.036-0.091,0.071-0.185,0.107-0.278c-0.525,1.389-1.031,2.791-1.386,4.232c-1.775-1.76-3.618-3.452-5.528-5.065
			c0.008,0.008,0.019,0.017,0.028,0.025c-0.025-0.022-0.053-0.044-0.077-0.066c-0.058-0.05-0.113-0.097-0.171-0.143
			c0.003,0,0.008,0.003,0.011,0.006c-0.055-0.047-0.113-0.094-0.171-0.141c0.049,0.041,0.099,0.083,0.149,0.127
			c-0.303-0.256-0.609-0.51-0.918-0.763c-2.098-1.731-4.256-3.393-6.453-4.995c-2.266-1.652-4.558-3.264-6.926-4.764
			c-1.037-0.658-2.107-1.258-3.16-1.886c0.031-0.161,0.067-0.321,0.098-0.481c0.245-1.285,0.51-2.566,0.799-3.842
			c-0.003,0.008-0.003,0.014-0.005,0.019c0.008-0.041,0.017-0.082,0.027-0.121c0.017-0.072,0.033-0.143,0.05-0.215
			c0,0,0,0.003,0,0.006c0.425-1.8,0.874-3.594,1.387-5.369c0.416-1.444,0.862-2.878,1.328-4.305
			c0.466-1.424,0.955-2.845,1.479-4.253c0.044-0.119,0.088-0.238,0.131-0.356c0.069-0.179,0.135-0.364,0.204-0.546
			c-0.008,0.022-0.016,0.041-0.025,0.061c0.008-0.019,0.014-0.036,0.022-0.055c-0.008,0.019-0.017,0.041-0.025,0.061
			c0.014-0.036,0.027-0.072,0.041-0.107c0.003-0.006,0.003-0.008,0.005-0.014c0,0.003,0,0.003,0,0.003
			c0.036-0.094,0.072-0.19,0.108-0.284c0.019-0.052,0.039-0.105,0.058-0.157c-0.016,0.041-0.03,0.083-0.047,0.121
			c0.047-0.124,0.097-0.251,0.143-0.378v0.003c0.204-0.529,0.408-1.061,0.62-1.588c1.117-2.803,2.299-5.579,3.537-8.333
			c1.166-2.594,2.351-5.185,3.691-7.696c0,0.003,0,0.003,0,0.003s0-0.003,0.003-0.003c0.02-0.039,0.042-0.077,0.061-0.116
			c-0.006,0.011-0.011,0.022-0.017,0.033c0.027-0.052,0.061-0.107,0.088-0.16c-0.014,0.022-0.025,0.044-0.038,0.066
			c0.036-0.063,0.072-0.13,0.108-0.196c0.226-0.413,0.46-0.821,0.692-1.229c1.367-2.42,2.825-4.785,4.449-7.043
			c-0.017,0.022-0.033,0.044-0.05,0.066c0.053-0.072,0.102-0.143,0.155-0.212c0.631-0.857,1.298-1.69,1.957-2.528
			c0.29-0.364,0.579-0.725,0.882-1.078c0.35-0.408,0.725-0.794,1.05-1.227c0.002-0.002,0.001-0.005,0.003-0.007
			c0.094-0.035,0.186-0.072,0.282-0.105C293.228,133.723,293.387,133.685,293.55,133.652z M176.335,170.442
			c0.003,0.003,0.003,0.003,0.006,0.006c-0.303-0.19-0.601-0.358-0.918-0.518c-0.031-0.017-0.061-0.03-0.091-0.044
			c-0.008-0.003-0.017-0.008-0.025-0.011c-0.016-0.008-0.036-0.016-0.052-0.025c0.008,0.005,0.019,0.008,0.028,0.014
			c-0.149-0.069-0.295-0.13-0.461-0.176c-0.303-0.083-0.637-0.088-0.948-0.055c-0.405,0.041-0.808,0.135-1.208,0.221
			c-0.386,0.072-0.774,0.124-1.166,0.157c-0.201,0.008-0.4,0.008-0.601,0c-0.248-0.022-0.499-0.055-0.747-0.099
			c-0.176-0.041-0.353-0.088-0.527-0.141c-0.226-0.08-0.452-0.171-0.673-0.27c-0.168-0.088-0.333-0.182-0.496-0.281
			c-0.201-0.138-0.397-0.281-0.584-0.433c-0.157-0.14-0.303-0.284-0.447-0.436c-0.091-0.11-0.179-0.223-0.265-0.339
			c-0.091-0.141-0.174-0.287-0.256-0.436c-0.086-0.187-0.163-0.375-0.235-0.565c-0.055-0.176-0.102-0.356-0.143-0.535
			c-0.03-0.182-0.052-0.361-0.072-0.543c0-0.011,0-0.019,0-0.03c-0.008-0.259-0.008-0.518,0.006-0.777
			c0.014-0.174,0.033-0.347,0.063-0.518c0.036-0.165,0.077-0.325,0.124-0.488c0.055-0.149,0.113-0.298,0.179-0.447
			c0.171-0.342,0.361-0.672,0.565-0.995c0.124-0.182,0.253-0.358,0.391-0.529c0.138-0.151,0.281-0.3,0.43-0.444
			c0.165-0.138,0.336-0.267,0.513-0.394c0.214-0.139,0.435-0.266,0.661-0.386c0.352-0.17,0.712-0.323,1.078-0.454
			c0.323-0.105,0.648-0.199,0.976-0.276c0.309-0.052,0.617-0.088,0.929-0.113c0.276-0.011,0.548-0.011,0.827,0
			c0.215,0.019,0.433,0.047,0.648,0.083c0.204,0.041,0.408,0.091,0.607,0.149c0.157,0.055,0.309,0.118,0.457,0.185
			c0.204,0.105,0.405,0.218,0.598,0.336c0.118,0.085,0.237,0.171,0.353,0.264c0.193,0.171,0.375,0.356,0.551,0.543
			c0.246,0.287,0.474,0.584,0.689,0.893c0.212,0.32,0.408,0.645,0.581,0.987c0.138,0.289,0.27,0.582,0.381,0.885
			c0.088,0.279,0.165,0.56,0.223,0.846c0.041,0.237,0.071,0.477,0.088,0.72c0.011,0.242,0.008,0.488-0.003,0.73
			c-0.003,0.036-0.006,0.074-0.008,0.113c-0.188,0.413-0.27,0.871-0.221,1.328c0.041,0.364,0.163,0.703,0.32,1.031
			c-0.003,0-0.003,0-0.003,0l0.003,0.003c0.003,0.008,0.006,0.017,0.011,0.025c0.022,0.044,0.047,0.091,0.069,0.138
			c0-0.003,0-0.005-0.003-0.008c0.003,0.003,0.003,0.006,0.006,0.008c0,0,0,0,0,0.003c0,0.002,0.001,0.003,0.002,0.004
			c0,0,0,0-0.002,0c0.003,0,0.003,0.003,0.003,0.003v-0.002c0,0,0,0,0,0c0.003,0.003,0.003,0.008,0.006,0.014
			c0.174,0.347,0.353,0.681,0.59,0.992c0.331,0.433,0.764,0.833,1.199,1.158c0.945,0.708,1.984,1.29,2.982,1.926
			c0.008,0.006,0.017,0.011,0.025,0.017c0.025,0.017,0.052,0.033,0.08,0.05c-0.006,0-0.008-0.003-0.014-0.006
			c0.56,0.369,1.105,0.752,1.646,1.152c0.587,0.438,1.177,0.868,1.739,1.337c0.03,0.025,0.058,0.049,0.088,0.074
			c0.846,0.747,1.634,1.549,2.392,2.387c0.94,1.069,1.833,2.188,2.71,3.308c0.921,1.171,1.833,2.362,2.679,3.589
			c0.422,0.637,0.788,1.309,1.133,1.993c0.223,0.46,0.427,0.929,0.62,1.403c0.066,0.16,0.131,0.32,0.192,0.483
			c-0.311-0.023-0.618-0.088-0.928-0.095c-1.13-0.028-2.255,0.085-3.374,0.245c-0.828,0.12-1.642,0.314-2.452,0.522
			c-0.157-0.834-0.39-1.657-0.668-2.454c-0.347-0.99-0.766-1.946-1.232-2.883c-0.532-1.075-1.061-2.156-1.656-3.197
			c-0.585-1.023-1.218-2.018-1.899-2.98c-1.182-1.67-2.591-3.153-4.03-4.6c-0.708-0.714-1.428-1.422-2.219-2.048
			c-0.576-0.458-1.18-0.877-1.797-1.276c0.006,0.003,0.008,0.006,0.014,0.008C176.36,170.458,176.349,170.45,176.335,170.442z
			 M124.783,216.998c-1.001-0.16-2.015-0.204-3.027-0.251c-0.397-0.017-0.791-0.041-1.188-0.05c-0.14-0.005-0.281-0.003-0.419-0.003
			c-0.168,0.003-0.339,0.003-0.507-0.003c-0.408-0.036-0.818-0.064-1.227-0.069c-0.218-0.003-0.438-0.005-0.653,0.03
			c-0.146,0.025-0.295,0.05-0.438,0.094c-0.306,0.099-0.546,0.245-0.783,0.441c-0.193,0.168-0.356,0.336-0.502,0.543
			c-0.146,0.223-0.262,0.447-0.331,0.714c-0.044,0.165-0.069,0.331-0.102,0.496c-0.05,0.243-0.097,0.482-0.146,0.722
			c-0.05,0.22-0.113,0.441-0.185,0.656c-0.027,0.074-0.06,0.152-0.093,0.223c-0.077,0.146-0.16,0.287-0.251,0.422
			c-0.083,0.121-0.171,0.237-0.262,0.35c-0.024,0.025-0.049,0.047-0.074,0.072c-0.064,0.049-0.127,0.099-0.193,0.146
			c-0.11,0.072-0.223,0.135-0.339,0.199c-0.127,0.058-0.256,0.113-0.389,0.165c-0.193,0.061-0.389,0.113-0.587,0.157
			c-0.232,0.044-0.463,0.074-0.7,0.096c-0.146,0.006-0.29,0.006-0.436,0.003c-0.083-0.011-0.165-0.022-0.248-0.036
			c-0.237-0.055-0.474-0.119-0.706-0.196c-0.033-0.014-0.069-0.025-0.102-0.039c-0.052-0.03-0.102-0.063-0.152-0.094
			c-0.185-0.132-0.364-0.27-0.538-0.419c-0.182-0.168-0.353-0.344-0.521-0.529c-0.259-0.309-0.496-0.634-0.722-0.965
			c-0.146-0.223-0.281-0.449-0.408-0.684c-0.063-0.135-0.119-0.273-0.171-0.413c-0.08-0.242-0.152-0.488-0.207-0.736
			c-0.052-0.295-0.096-0.584-0.124-0.882c-0.008-0.193-0.005-0.386,0.003-0.579c0.011-0.118,0.027-0.234,0.047-0.353
			c0.05-0.21,0.11-0.416,0.182-0.62c0.069-0.185,0.143-0.364,0.229-0.543c0.088-0.171,0.182-0.336,0.287-0.499
			c0.055-0.08,0.116-0.157,0.179-0.234c0.138-0.146,0.284-0.287,0.433-0.425c0.176-0.149,0.361-0.292,0.549-0.425
			c0.251-0.16,0.507-0.309,0.769-0.444c0.29-0.138,0.584-0.262,0.887-0.369c0.215-0.072,0.433-0.135,0.653-0.187
			c0.207-0.039,0.419-0.069,0.631-0.088c0.179-0.008,0.358-0.011,0.537-0.003c0.044,0.003,0.088,0.008,0.13,0.014
			c0.152,0.036,0.3,0.077,0.447,0.124c0.226,0.08,0.447,0.174,0.661,0.281c0.129,0.066,0.253,0.14,0.375,0.218
			c0.069,0.047,0.138,0.099,0.204,0.152c0.432,0.695,1.138,1.285,1.927,1.467c0.706,0.165,1.411,0.146,2.125,0.099
			c-0.011,0-0.025,0-0.036,0c0.055-0.003,0.11-0.006,0.165-0.008c0.017-0.003,0.03-0.003,0.047-0.006
			c-0.003,0-0.006,0.003-0.008,0.003c0.623-0.038,1.24-0.077,1.863-0.124c-0.074,0.006-0.149,0.011-0.223,0.016
			c0.507-0.033,1.017-0.033,1.524-0.061c0.601-0.033,1.202-0.08,1.8-0.121c1.022-0.066,2.04-0.052,3.062-0.044
			c0.893,0.008,1.781,0.033,2.671,0.088c1.108,0.072,2.216,0.083,3.327,0.146c0.855,0.05,1.717,0.041,2.575,0.094
			c1.185,0.096,2.362,0.262,3.539,0.438c0.507,0.074,1.009,0.19,1.519,0.262c0.391,0.055,0.78,0.116,1.166,0.19
			c0.047,0.01,0.093,0.019,0.14,0.029c-0.242,0.401-0.446,0.823-0.529,1.287c-0.077,0.433-0.069,0.879,0.061,1.301
			c0.088,0.29,0.212,0.557,0.361,0.819c0.171,0.281,0.367,0.524,0.639,0.728c0.085,0.063,0.174,0.124,0.262,0.179
			c-0.265,0.091-0.527,0.19-0.786,0.298c-1.346,0.551-2.643,1.213-3.877,1.981c-0.029-0.022-0.065-0.054-0.092-0.072
			c-0.67-0.471-1.364-0.907-2.078-1.309c-1.505-0.843-3.082-1.508-4.711-2.076C129.447,218.001,127.132,217.372,124.783,216.998z
			 M338.933,280.601c1.304,2.169,2.533,4.383,3.569,6.692c0.408,0.948,0.766,1.913,1.064,2.902c0.193,0.689,0.364,1.386,0.491,2.092
			c0.061,0.433,0.102,0.865,0.121,1.304c0.003,0.301-0.008,0.601-0.03,0.899c-0.025,0.196-0.058,0.386-0.097,0.576
			c-0.055,0.207-0.113,0.411-0.182,0.615c-0.309-0.049-0.615-0.113-0.921-0.182c-0.805-0.207-1.59-0.488-2.392-0.708
			c-0.777-0.212-1.659-0.582-2.426-0.127c-0.637,0.38-0.929,0.976-0.907,1.703c0.01,0.359,0.14,0.695,0.283,1.02
			c0.274,0.622,0.569,1.236,0.846,1.856c0.216,0.491,0.437,0.983,0.614,1.49c0.099,0.281,0.171,0.573,0.284,0.846
			c0.121,0.295,0.253,0.584,0.383,0.877c-0.014-0.033-0.027-0.066-0.041-0.099c0.03,0.072,0.063,0.146,0.094,0.221
			c0.358,0.824,0.708,1.651,1.012,2.497c0.364,1.009,0.676,2.037,0.984,3.065c0.485,1.676,0.868,3.377,1.149,5.099
			c-0.008-0.055-0.017-0.113-0.025-0.168c0.014,0.088,0.028,0.176,0.042,0.267c0,0.001,0,0.002,0,0.003c0,0.003,0,0.003,0,0.003
			c0,0.003,0,0.008,0,0.011c0.532,3.407,0.958,6.822,1.09,10.269c0.051,1.943,0.012,3.883-0.169,5.82
			c-0.154,1.406-0.364,2.803-0.598,4.198c-0.276,1.61-0.557,3.225-0.926,4.815c-0.358,1.5-0.744,2.996-1.268,4.443
			c-0.212,0.543-0.452,1.072-0.722,1.588c-0.13,0.229-0.265,0.449-0.413,0.664c-0.091,0.119-0.187,0.234-0.287,0.347
			c-0.052,0.047-0.105,0.096-0.157,0.143c-0.044,0.03-0.088,0.061-0.132,0.088c-0.033,0.019-0.066,0.036-0.099,0.052
			c-0.025,0.011-0.053,0.019-0.08,0.03c-0.014,0.003-0.03,0.005-0.044,0.011c-0.03,0.003-0.058,0.006-0.088,0.008
			c-0.031-0.003-0.064-0.003-0.096-0.005c-0.064-0.008-0.127-0.019-0.19-0.03c-0.083-0.022-0.168-0.05-0.251-0.074
			c-0.08-0.036-0.157-0.072-0.235-0.11c-0.234-0.132-0.46-0.276-0.683-0.43c-0.108-0.083-0.212-0.168-0.314-0.259
			c-0.154-0.157-0.3-0.317-0.452-0.477c-0.303-0.311-0.62-0.579-0.967-0.835c-0.27-0.193-0.554-0.369-0.879-0.452
			c-0.51-0.127-1.075-0.132-1.544,0.141c-0.455,0.262-0.827,0.673-0.959,1.191c-0.066,0.267-0.077,0.521-0.072,0.785
			c0,0,0-0.003,0-0.005c0.008,0.394-0.003,0.794-0.027,1.188c-0.006,0.049-0.014,0.102-0.022,0.152
			c-0.003,0.008-0.005,0.019-0.008,0.03c-0.069,0.163-0.138,0.328-0.193,0.499c-0.036,0.105-0.064,0.215-0.094,0.32
			c-0.022,0.036-0.047,0.074-0.069,0.113c-0.155,0.276-0.276,0.535-0.367,0.838c-0.127,0.416-0.132,0.854-0.152,1.287
			c-0.025,0.549-0.06,1.1-0.113,1.648c-0.127,1.16-0.317,2.31-0.573,3.448c-0.298,1.216-0.664,2.409-1.097,3.586
			c-0.496,1.29-1.07,2.55-1.714,3.773c-0.557,1.003-1.166,1.971-1.833,2.905c-0.672,0.907-1.403,1.756-2.178,2.574
			c-1.006,1.028-2.073,1.984-3.195,2.886c-1.166,0.915-2.39,1.748-3.655,2.522c-1.864,1.114-3.787,2.122-5.772,3.002
			c-1.885,0.802-3.818,1.497-5.783,2.084c-1.789,0.507-3.603,0.923-5.441,1.232c-3.249,0.501-6.525,0.669-9.809,0.774
			c-2.064,0.055-4.122,0.06-6.189-0.035c-1.833-0.088-3.666-0.234-5.49-0.408c0.011,0.003,0.025,0.003,0.038,0.006
			c-0.017-0.003-0.033-0.003-0.049-0.006c-0.088-0.008-0.176-0.017-0.265-0.025c0.033,0.003,0.066,0.006,0.099,0.008
			c-0.631-0.063-1.268-0.13-1.896-0.204c-3.818-0.433-7.605-1.056-11.403-1.621c-1.772-0.262-3.55-0.438-5.325-0.675
			c-0.697-0.094-1.397-0.163-2.078,0.064c-0.562,0.187-0.987,0.562-1.251,1.091c-0.094,0.188-0.135,0.383-0.149,0.582
			c-0.176,0.141-0.328,0.312-0.449,0.513c-0.061,0.102-0.121,0.204-0.185,0.3c-0.003,0.003-0.006,0.008-0.008,0.011
			c-0.008,0.005-0.017,0.014-0.025,0.019c-0.185,0.138-0.38,0.264-0.573,0.386c-0.102,0.058-0.201,0.11-0.306,0.16
			c-0.149,0.061-0.3,0.116-0.455,0.163c-0.278,0.074-0.559,0.132-0.843,0.185c-0.89,0.13-1.794,0.196-2.696,0.226
			c-1.254,0.027-2.517,0.003-3.768-0.083c-0.722-0.047-1.444-0.11-2.166-0.165c-0.678-0.052-1.359-0.077-2.037-0.135
			c-0.75-0.088-1.497-0.24-2.235-0.411c0.03,0.008,0.061,0.014,0.091,0.022c-0.094-0.022-0.19-0.044-0.284-0.066
			c0.005,0,0.011,0.003,0.017,0.003c-0.557-0.132-1.13-0.273-1.709-0.198c-0.604,0.077-1.103,0.397-1.373,0.948
			c-0.281,0.573-0.119,1.257,0.309,1.695c0.011,0.017,0.019,0.03,0.03,0.047c0.035,0.063,0.069,0.127,0.099,0.19
			c0.016,0.039,0.03,0.077,0.044,0.118c0,0.025,0.003,0.047,0.003,0.072c0-0.022,0-0.041,0-0.066
			c0.008,0.143,0.022,0.284,0.03,0.425c-0.003,0.132-0.006,0.262-0.014,0.391c-0.003,0.036-0.008,0.069-0.014,0.105
			c-0.022,0.05-0.047,0.097-0.072,0.146c-0.097,0.174-0.198,0.344-0.309,0.507c-0.063,0.08-0.127,0.157-0.193,0.234
			c-0.061,0.058-0.122,0.11-0.182,0.165c-0.055,0.039-0.108,0.074-0.165,0.113c-0.122,0.066-0.245,0.13-0.372,0.188
			c-0.226,0.091-0.452,0.176-0.681,0.251c-0.276,0.074-0.554,0.138-0.832,0.187c-0.477,0.066-0.956,0.105-1.439,0.127
			c-0.891,0.019-1.784-0.017-2.671-0.094c-1.37-0.146-2.726-0.383-4.068-0.681c-2.263-0.532-4.471-1.243-6.646-2.059
			c-3.432-1.315-6.8-2.801-10.044-4.531c-2.39-1.312-4.735-2.71-6.952-4.297c-1.502-1.114-2.933-2.31-4.295-3.594
			c-0.554-0.537-1.097-1.091-1.621-1.659c-0.16-0.174-0.317-0.35-0.48-0.521c-0.328-0.345-0.67-0.617-1.091-0.844
			c-1.274-0.684-2.985,0.039-3.509,1.348c-0.182,0.452-0.284,0.926-0.441,1.384c-0.055,0.13-0.113,0.259-0.176,0.386
			c-0.069,0.119-0.143,0.237-0.223,0.353c-0.069,0.088-0.141,0.174-0.215,0.259c-0.077,0.074-0.157,0.146-0.237,0.218
			c-0.088,0.066-0.179,0.13-0.273,0.19c-0.091,0.049-0.185,0.099-0.278,0.146c-0.085,0.033-0.174,0.063-0.259,0.094
			c-0.091,0.022-0.179,0.041-0.267,0.058c-0.132,0.017-0.267,0.028-0.4,0.036c-0.201-0.003-0.4-0.008-0.598-0.025
			c-0.496-0.055-0.99-0.143-1.477-0.251c-0.893-0.215-1.767-0.488-2.627-0.802c-1.086-0.422-2.142-0.904-3.17-1.45
			c-1.273-0.703-2.492-1.497-3.68-2.343c-2.788-2.036-5.347-4.345-7.839-6.729c-2.052-1.977-4.061-4.002-6.026-6.066
			c-1.929-2.023-3.79-4.099-5.543-6.276c-1.353-1.706-2.652-3.448-3.906-5.226c-1.05-1.489-2.095-2.988-3.038-4.545
			c-0.774-1.32-1.483-2.69-2.409-3.909c-0.064-0.083-0.147-0.15-0.212-0.233c-0.2-0.377-0.402-0.754-0.595-1.134v0.003
			c-0.011-0.028-0.025-0.055-0.039-0.08c-0.212-0.427-0.43-0.857-0.656-1.279c-0.24-0.449-0.474-0.904-0.75-1.337
			c-0.135-0.215-0.281-0.427-0.471-0.598c-0.118-0.102-0.259-0.21-0.408-0.257c-0.118-0.036-0.234-0.069-0.358-0.066
			c-0.088,0.003-0.168,0.017-0.253,0.036c-0.331,0.072-0.554,0.383-0.675,0.678c-0.067,0.163-0.095,0.342-0.124,0.515
			c-0.088,0.528-0.11,1.063-0.113,1.599c-0.006,0.601,0.016,1.202,0.033,1.8c0.016,0.595,0.022,1.188,0.063,1.783
			c0.036,0.546,0.094,1.092,0.146,1.637c0.003,0.088,0.006,0.173,0.003,0.264c0.002-0.002,0.002-0.004,0.002-0.006
			c0,0.016-0.002,0.029-0.002,0.039c-0.014,0.235-0.044,0.47-0.085,0.699c-0.01,0.059-0.023,0.117-0.035,0.175
			c-0.006,0.001-0.012,0.002-0.018,0.003c-0.053,0.003-0.105,0.003-0.157,0.005c-0.201-0.017-0.402-0.039-0.601-0.069
			c-0.179-0.036-0.353-0.08-0.529-0.127c-0.226-0.077-0.449-0.171-0.667-0.267c-0.502-0.245-0.99-0.524-1.464-0.819
			c-0.303-0.201-0.601-0.414-0.885-0.642c-0.485-0.419-0.948-0.866-1.384-1.334c-1.094-1.218-2.015-2.605-2.947-3.947
			c0.006,0.008,0.014,0.019,0.019,0.03c-0.033-0.05-0.066-0.096-0.099-0.143c-0.913-1.359-1.679-2.803-2.428-4.258
			c-0.868-1.723-1.662-3.49-2.448-5.254c-0.777-1.75-1.48-3.525-2.139-5.32c-0.047-0.132-0.094-0.264-0.141-0.397
			c-1.676-4.779-3.027-9.675-4.101-14.62c-1.037-4.881-1.877-9.824-2.304-14.796c-0.017-0.19-0.033-0.378-0.047-0.562
			c0.009,0.096,0.017,0.193,0.025,0.289c-0.149-1.888-0.298-3.773-0.337-5.667c-0.016-0.857,0.003-1.717,0.017-2.574
			c0.016-0.879,0.025-1.762,0.055-2.641c0.074-1.373,0.259-2.729,0.488-4.079c0,0.003,0,0.006,0,0.011
			c0.179-1.017,0.425-2.018,0.615-3.032c0.107-0.592,0.204-1.191,0.218-1.792c0.008-0.353-0.006-0.736-0.119-1.072
			c-0.226-0.797-1.014-1.282-1.822-1.18c-0.648,0.083-1.224,0.557-1.574,1.086c-0.394,0.595-0.65,1.268-0.83,1.96
			c-0.149,0.582-0.245,1.177-0.339,1.772c-0.08,0.085-0.16,0.171-0.243,0.254c-0.099,0.083-0.198,0.16-0.3,0.234
			c-0.085,0.055-0.174,0.105-0.265,0.154c-0.107,0.05-0.218,0.099-0.328,0.141c-0.091,0.03-0.185,0.055-0.276,0.077
			c-0.108,0.019-0.212,0.033-0.317,0.044c-0.05,0.003-0.102,0.003-0.152,0.005c-0.027-0.003-0.055-0.005-0.082-0.011
			c-0.011-0.003-0.025-0.006-0.036-0.008c-0.036-0.014-0.071-0.028-0.107-0.042c-0.041-0.022-0.08-0.044-0.119-0.066
			c-0.033-0.022-0.066-0.047-0.099-0.072c-0.016-0.014-0.03-0.027-0.044-0.044c-0.008-0.008-0.016-0.019-0.025-0.028
			c-0.011-0.019-0.022-0.042-0.033-0.061c-0.03-0.066-0.058-0.132-0.085-0.196c-0.105-0.331-0.204-0.661-0.284-0.995
			c-0.188-0.901-0.309-1.811-0.391-2.723c-0.036-0.518-0.052-1.034-0.038-1.552c0.05-0.777,0.141-1.543,0.265-2.31
			c0.265-1.483,0.615-2.944,0.987-4.405c0.185-0.728,0.35-1.461,0.551-2.186c0.193-0.7,0.4-1.395,0.609-2.089
			c0.673-2.139,1.4-4.258,2.227-6.345c0.915-2.313,1.907-4.592,2.946-6.85c-0.008,0.014-0.014,0.027-0.022,0.044
			c-0.003,0.003-0.003,0.006-0.005,0.011c-0.011,0.022-0.019,0.041-0.031,0.066l-0.003,0.003c0.011-0.022,0.019-0.044,0.03-0.066
			c0.824-1.772,1.659-3.542,2.541-5.287c1.232-2.448,2.608-4.815,4.01-7.167c0.659-1.103,1.34-2.191,2.02-3.277
			c0.317-0.505,0.645-1.006,0.918-1.538c0.113-0.22,0.192-0.46,0.28-0.695c0.862,0.226,1.73,0.43,2.586,0.677
			c0.588,0.17,1.174,0.347,1.758,0.528c-0.321,0.253-0.644,0.504-0.945,0.782c-0.386,0.353-0.775,0.717-1.108,1.122
			c-0.419,0.513-0.808,1.067-1.025,1.701c-0.179,0.518-0.265,1.072-0.262,1.618c0.005,0.466,0.08,0.959,0.295,1.378
			c0.171,0.331,0.367,0.667,0.579,0.976c0.436,0.628,1.122,1.122,1.822,1.417c0.323,0.138,0.653,0.254,0.998,0.317
			c0.223,0.039,0.441,0.052,0.664,0.052c0.108,0,0.215-0.003,0.325-0.008c0.281-0.017,0.56-0.03,0.838-0.077
			c0.244-0.04,0.482-0.11,0.72-0.175c0.768-0.204,1.527-0.474,2.238-0.831c0.652-0.33,1.312-0.71,1.835-1.221
			c-0.007,0.007-0.014,0.014-0.022,0.022c0.008-0.008,0.015-0.015,0.022-0.022c0.001-0.001,0.002-0.001,0.003-0.002
			c0.001-0.001,0.002-0.002,0.003-0.003c0.002-0.002,0.004-0.004,0.005-0.006c-0.002,0.002-0.003,0.003-0.005,0.005
			c0.156-0.156,0.293-0.326,0.419-0.506c0.141-0.196,0.11-0.482-0.047-0.659c-0.149-0.171-0.369-0.215-0.584-0.157
			c-0.344,0.094-0.67,0.212-1,0.35c0.006-0.003,0.011-0.006,0.016-0.008c-0.75,0.306-1.499,0.609-2.282,0.824
			c-0.237,0.058-0.477,0.102-0.719,0.138c-0.179,0.019-0.361,0.033-0.54,0.036c-0.21-0.003-0.419-0.008-0.626-0.03
			c-0.058-0.008-0.116-0.022-0.174-0.033c-0.259-0.072-0.515-0.16-0.764-0.256c-0.088-0.039-0.174-0.08-0.259-0.127
			c-0.099-0.061-0.198-0.127-0.295-0.193c-0.094-0.077-0.185-0.157-0.276-0.24c-0.008-0.011-0.017-0.022-0.027-0.033
			c-0.008-0.014-0.019-0.027-0.028-0.041c-0.027-0.052-0.055-0.105-0.08-0.157c-0.006-0.014-0.008-0.027-0.014-0.041
			c0-0.006-0.003-0.011-0.003-0.016c0.02-0.066,0.042-0.132,0.066-0.196c0.058-0.13,0.118-0.256,0.188-0.383
			c0.127-0.215,0.259-0.427,0.402-0.631c0.455-0.584,0.965-1.122,1.486-1.648c-0.028,0.027-0.053,0.052-0.08,0.08
			c0.413-0.418,0.815-0.849,1.228-1.27c0.43-0.426,0.878-0.824,1.354-1.2c0.565-0.422,1.149-0.813,1.759-1.169
			c1.083-0.601,2.208-1.136,3.352-1.607c-0.028,0.011-0.058,0.022-0.088,0.033c0.64-0.262,1.29-0.507,1.932-0.769
			c0.364-0.149,1.064-0.361,1.003-0.879c-0.028-0.24-0.201-0.411-0.41-0.449c0.003,0,0.005-0.003,0.008-0.003
			c-0.326-0.042-0.678,0.014-1.003,0.036c-0.066,0.003-0.13,0.008-0.196,0.011c-0.212-0.014-0.427-0.014-0.642-0.036
			c0.008,0.003,0.014,0.003,0.019,0.006c-0.008-0.003-0.019-0.003-0.027-0.006c-0.002,0-0.004,0-0.005,0
			c-0.009-0.003-0.014-0.003-0.022-0.003c0,0,0,0-0.003,0c-0.008-0.003-0.016-0.003-0.027-0.003c0.006,0,0.008,0,0.011,0
			c-0.212-0.031-0.425-0.072-0.634-0.124c-0.121-0.033-0.24-0.072-0.358-0.116c-0.091-0.039-0.179-0.074-0.27-0.107
			c-0.008-0.005-0.016-0.008-0.024-0.008c-0.028-0.011-0.055-0.022-0.083-0.033c0.008,0,0.016,0.003,0.025,0.005
			c-0.113-0.047-0.223-0.099-0.331-0.151c-0.08-0.05-0.16-0.097-0.234-0.149c-0.074-0.058-0.143-0.118-0.212-0.182
			c-0.022-0.025-0.041-0.047-0.063-0.072c-0.047-0.066-0.091-0.132-0.133-0.201c-0.033-0.063-0.063-0.124-0.091-0.188
			c-0.022-0.063-0.041-0.124-0.06-0.187c-0.008-0.028-0.014-0.052-0.02-0.08c0-0.022-0.003-0.044-0.003-0.066
			c0.003-0.083,0.008-0.165,0.017-0.248c0.008-0.055,0.022-0.11,0.033-0.168c0.025-0.083,0.053-0.165,0.08-0.251
			c0.033-0.072,0.066-0.143,0.102-0.212c0.13-0.218,0.27-0.427,0.422-0.628c0.249-0.32,0.522-0.619,0.805-0.908
			c0.166-0.16,0.341-0.313,0.526-0.457c0.298-0.221,0.609-0.424,0.929-0.617c0.585-0.322,1.187-0.62,1.801-0.877
			c0.504-0.199,1.023-0.352,1.543-0.495c0,0.003,0,0.003,0,0.003c0.32-0.085,0.637-0.163,0.957-0.243
			c0.157-0.041,0.322-0.094,0.482-0.118c0.148,0,0.281-0.13,0.267-0.284c-0.011-0.143-0.135-0.251-0.273-0.248
			c-0.235-0.041-0.463-0.088-0.703-0.108c-0.436-0.036-0.871-0.033-1.307,0.019c-0.799,0.094-1.579,0.287-2.359,0.493
			c-0.945,0.251-1.885,0.576-2.74,1.056c-0.23-0.167-0.476-0.316-0.713-0.437c-0.03-0.017-0.061-0.03-0.091-0.044
			c0.017,0.006,0.033,0.014,0.047,0.019c-0.154-0.077-0.311-0.152-0.466-0.232c0.011,0.008,0.022,0.014,0.033,0.019
			c-1.058-0.521-2.183-0.918-3.316-1.227c-0.545-0.147-1.096-0.261-1.646-0.378c0.008-0.009,0.015-0.019,0.023-0.028
			c-0.009,0.01-0.017,0.019-0.025,0.028c0,0-0.001,0-0.001,0c0.024-0.029,0.048-0.057,0.072-0.086
			c0.019-0.022,0.039-0.047,0.058-0.069c-0.011,0.014-0.025,0.03-0.039,0.047c0.138-0.163,0.273-0.32,0.411-0.48
			c0.741-0.854,1.532-1.67,2.326-2.481c0.824-0.838,1.656-1.676,2.494-2.505c1.704-1.685,3.444-3.334,5.212-4.952
			c0.044-0.04,0.089-0.08,0.133-0.12c0.742-0.667,1.497-1.312,2.255-1.957c0.753-0.639,1.502-1.273,2.31-1.839
			c0.562-0.372,1.138-0.717,1.736-1.025c0.29-0.143,0.59-0.27,0.893-0.38c0.248-0.083,0.496-0.152,0.747-0.212
			c0.372-0.066,0.766-0.088,1.089-0.292c0.496-0.295,0.802-0.898,0.7-1.475c-0.149-0.857-0.91-1.359-1.751-1.326
			c-0.405,0.017-0.805,0.099-1.193,0.201c-0.537,0.143-1.066,0.32-1.582,0.524c-0.096-0.003-0.19-0.008-0.284-0.011
			c-0.254-0.017-0.505-0.041-0.755-0.08c-0.168-0.033-0.334-0.075-0.499-0.121c-0.107-0.036-0.215-0.074-0.32-0.118
			c-0.058-0.03-0.116-0.061-0.171-0.094c-0.096-0.063-0.188-0.132-0.278-0.204c-0.075-0.063-0.146-0.13-0.212-0.201
			c-0.05-0.055-0.094-0.116-0.138-0.176c-0.03-0.044-0.058-0.091-0.083-0.138c-0.011-0.022-0.019-0.041-0.028-0.064
			c-0.019-0.061-0.036-0.121-0.053-0.185c-0.019-0.096-0.033-0.196-0.047-0.295c0-0.044,0-0.088,0-0.132
			c0.006-0.044,0.011-0.091,0.017-0.135c0.014-0.058,0.027-0.116,0.041-0.174c0.019-0.047,0.039-0.094,0.058-0.141
			c0.049-0.096,0.102-0.19,0.157-0.284c0.105-0.152,0.212-0.3,0.325-0.444c0.301-0.339,0.62-0.659,0.951-0.97
			c0.496-0.433,1.017-0.838,1.527-1.254c0.62-0.507,1.26-0.987,1.916-1.447c0.036-0.025,0.069-0.047,0.105-0.072
			c0.518-0.35,1.045-0.673,1.596-0.97c1.26-0.609,2.572-1.127,3.887-1.601c1.345-0.469,2.71-0.888,4.071-1.296
			c1.133-0.339,2.271-0.656,3.41-0.968c1.207-0.331,2.428-0.639,3.611-1.05c0.637-0.22,1.282-0.441,1.894-0.728
			c0.551-0.259,1.083-0.543,1.604-0.86c0.529-0.322,1.097-0.628,1.577-1.025c0.07-0.058,0.136-0.127,0.203-0.192
			c0.055,0.059,0.12,0.107,0.175,0.167c0.929,1.067,1.813,2.172,2.709,3.266c0.987,1.202,1.949,2.431,2.831,3.71
			c0.913,1.353,1.701,2.784,2.431,4.239c0.344,0.697,0.675,1.396,1.021,2.09c0.009,0.018,0.021,0.036,0.03,0.055
			c-0.716,0.358-1.391,0.797-1.892,1.413c-0.356,0.436-0.667,0.901-0.822,1.447c-0.187,0.675-0.187,1.442,0.152,2.076
			c0.248,0.463,0.576,0.893,0.959,1.26c-0.435,0.196-0.846,0.444-1.21,0.769c-0.383,0.342-0.725,0.708-1.009,1.136
			c-0.311,0.477-0.592,1.089-0.598,1.67c-0.008,0.97,0.355,1.938,1.031,2.643c0.273,0.284,0.551,0.56,0.887,0.769
			c0.301,0.185,0.607,0.331,0.926,0.463c0.482,0.185,0.987,0.325,1.499,0.389c0.221,0.028,0.438,0.039,0.656,0.039
			c0.372,0,0.742-0.036,1.116-0.105c0.502-0.088,1.001-0.19,1.494-0.311c0.557-0.135,1.067-0.347,1.56-0.637
			c0.215-0.127,0.298-0.419,0.22-0.648c-0.082-0.243-0.317-0.389-0.57-0.378c-0.317,0.014-0.637,0.011-0.954,0.033
			c-0.264,0.014-0.527,0.033-0.794,0.039c-0.257-0.003-0.513-0.014-0.772-0.042c-0.19-0.027-0.383-0.055-0.568-0.099
			c-0.287-0.074-0.568-0.163-0.846-0.27c-0.157-0.066-0.311-0.138-0.463-0.218c-0.064-0.039-0.127-0.077-0.188-0.121
			c-0.085-0.066-0.168-0.138-0.248-0.209c-0.036-0.039-0.069-0.077-0.105-0.119c-0.03-0.047-0.063-0.094-0.094-0.143
			c-0.014-0.03-0.027-0.061-0.041-0.091c-0.008-0.022-0.016-0.041-0.022-0.061c0-0.008,0-0.014-0.003-0.022
			c0.003-0.044,0.005-0.091,0.008-0.135c0.008-0.044,0.014-0.085,0.022-0.13c0.047-0.102,0.094-0.204,0.146-0.3
			c0.014-0.025,0.028-0.049,0.044-0.072c0.011-0.016,0.025-0.03,0.036-0.044c0.336-0.312,0.703-0.596,1.061-0.877
			c0.072-0.055,0.146-0.105,0.223-0.154c0.204-0.105,0.41-0.207,0.62-0.298c0.499-0.201,1.017-0.391,1.535-0.537
			c0.198-0.049,0.397-0.094,0.595-0.132c0.35-0.011,0.703-0.044,1.05-0.099c0.248-0.028,0.502-0.041,0.747-0.044
			c-0.05,0-0.099,0-0.149,0c0.209,0,0.383-0.003,0.587-0.063c0.322-0.094,0.56-0.345,0.714-0.631
			c0.19-0.353,0.157-0.877-0.083-1.199c-0.275-0.372-0.631-0.532-1.078-0.576c-0.119-0.011-0.24-0.019-0.361-0.022
			c-0.383-0.014-0.767-0.003-1.149-0.019c-0.212-0.008-0.422-0.011-0.631-0.008c-0.052-0.011-0.102-0.022-0.154-0.036
			c-0.331-0.083-0.659-0.177-0.978-0.295c-0.168-0.072-0.331-0.149-0.488-0.234c-0.162-0.094-0.32-0.196-0.471-0.303
			c-0.039-0.033-0.074-0.063-0.113-0.096c-0.011-0.014-0.022-0.025-0.033-0.039c-0.041-0.063-0.083-0.127-0.121-0.19
			c-0.033-0.058-0.061-0.118-0.091-0.179c0.003-0.003,0.005-0.006,0.008-0.008c0.13-0.121,0.267-0.231,0.405-0.339
			c0.325-0.243,0.664-0.474,1.012-0.681c0.278-0.151,0.57-0.275,0.863-0.397c0.686-0.27,1.375-0.54,2.089-0.739
			c0.314-0.074,0.631-0.138,0.948-0.187c0.656-0.083,1.315-0.121,1.976-0.132c0.874,0.003,1.744,0.072,2.613,0.173
			c0.632,0.085,1.256,0.197,1.877,0.337c0.582,0.4,1.249,0.692,1.94,0.714c0.215-0.005,0.425-0.027,0.623-0.127
			c0.356-0.174,0.604-0.532,0.623-0.929c0.022-0.433-0.201-0.777-0.532-1.014c-0.094-0.083-0.185-0.171-0.276-0.259
			c-0.292-0.292-0.617-0.546-0.915-0.832c-0.154-0.16-0.298-0.328-0.438-0.502c-0.061-0.083-0.118-0.168-0.174-0.254
			c-0.025-0.05-0.05-0.099-0.071-0.152c-0.009-0.025-0.017-0.05-0.025-0.074c-0.003-0.008-0.005-0.017-0.005-0.028
			c-0.003-0.017-0.003-0.036-0.005-0.055c0.003-0.039,0.005-0.077,0.008-0.118c0.014-0.083,0.028-0.165,0.044-0.251
			c0.014-0.022,0.025-0.047,0.036-0.069c0.022-0.036,0.044-0.072,0.069-0.107c0.044-0.055,0.091-0.113,0.138-0.165
			c0.033-0.028,0.063-0.055,0.097-0.08c0.047-0.036,0.094-0.066,0.143-0.099c0.069-0.033,0.138-0.063,0.21-0.094
			c0.303-0.121,0.609-0.231,0.923-0.325c0.096-0.025,0.195-0.047,0.295-0.063c0.165-0.012,0.33-0.016,0.497-0.017
			c0.348-0.002,0.696-0.003,1.039,0.034c0.19,0.03,0.375,0.069,0.562,0.116c0.378,0.096,0.752,0.198,1.116,0.336
			c0.414,0.179,0.802,0.405,1.208,0.606c0.22,0.108,0.582,0.325,0.818,0.157c0.011-0.008,0.022-0.016,0.033-0.025
			c0.234-0.204,0.066-0.54-0.058-0.755c-0.201-0.35-0.491-0.642-0.802-0.896c-0.874-0.714-1.899-1.174-3.007-1.373
			c-0.86-0.157-1.775-0.265-2.652-0.185c-0.706,0.069-1.37,0.295-1.99,0.637c-0.14,0.083-0.228,0.222-0.352,0.318
			c-0.367-0.749-0.77-1.482-1.208-2.186c-1.092-1.759-2.263-3.481-3.561-5.097c-1.265-1.574-2.707-2.98-4.217-4.314
			c-0.327-0.289-0.661-0.571-0.99-0.859c0.973-0.301,1.95-0.587,2.935-0.84c2.222-0.573,4.451-1.103,6.695-1.582
			c0.077-0.017,0.155-0.033,0.232-0.05c-0.003,0-0.006,0-0.008,0c5.088-1.083,10.223-2.052,15.408-2.502
			c2.55-0.204,5.102-0.371,7.66-0.414c2.517-0.047,5.036-0.028,7.55,0.085c-0.027-0.003-0.052-0.003-0.08-0.006
			c0.105,0.003,0.209,0.008,0.317,0.014c0.025,0,0.047,0.003,0.072,0.003c0.047,0,0.091,0.003,0.138,0.005
			c-0.028,0-0.058-0.003-0.085-0.003c3.5,0.179,6.995,0.518,10.449,1.105h-0.003c0.193,0.033,0.386,0.066,0.576,0.099
			c1.546,0.287,3.079,0.626,4.581,1.083c0.62,0.201,1.226,0.416,1.827,0.673c0.306,0.146,0.604,0.303,0.893,0.48
			c0.171,0.116,0.336,0.237,0.502,0.364c-0.35,0.209-0.714,0.4-1.075,0.581c-0.546,0.27-1.102,0.54-1.571,0.932
			c-0.747,0.62-1.342,1.464-1.29,2.483c0.033,0.667,0.265,1.282,0.662,1.819c0.444,0.601,1.136,0.97,1.778,1.32
			c1.064,0.582,2.175,1.067,3.266,1.59c1.309,0.628,2.591,1.315,3.911,1.921c-0.096-0.044-0.193-0.088-0.289-0.132
			c0.494,0.227,0.991,0.455,1.487,0.682c0.064,0.029,0.127,0.058,0.191,0.087c0.028,0.014,0.058,0.028,0.088,0.041h0.003
			c0.049,0.025,0.102,0.047,0.152,0.072c-0.014-0.008-0.025-0.014-0.036-0.019c0.016,0.008,0.03,0.014,0.047,0.022
			c0.008,0.003,0.016,0.008,0.025,0.011c-0.003,0-0.003,0-0.005,0c-0.049-0.022-0.096-0.044-0.146-0.066
			c0.449,0.207,0.898,0.413,1.351,0.623c-0.016-0.008-0.036-0.016-0.052-0.025c0.039,0.017,0.08,0.036,0.119,0.052
			c0.028,0.013,0.055,0.027,0.083,0.04c2.075,0.964,4.123,1.982,6.138,3.077c2.062,1.119,4.076,2.326,6.067,3.57
			c0.375,0.237,0.744,0.48,1.116,0.719c4.589,2.963,8.953,6.276,13.176,9.738c1.364,1.16,2.704,2.34,4.007,3.569
			c1.282,1.213,2.497,2.492,3.691,3.785c1.012,1.122,2.001,2.263,2.939,3.448c0.901,1.133,1.747,2.301,2.572,3.492
			c0.913,1.348,1.759,2.737,2.514,4.181c0.348,0.706,0.664,1.42,0.94,2.156c0.077,0.231,0.146,0.466,0.21,0.703
			c-0.091,0-0.185,0-0.276-0.003c-0.353-0.025-0.708-0.063-1.055-0.118c-0.306-0.058-0.609-0.119-0.915-0.171
			c-0.923-0.176-1.94-0.538-2.712,0.237c-0.576,0.579-0.496,1.533,0.022,2.12c0.199,0.229,0.419,0.436,0.673,0.601
			c0.194,0.126,0.404,0.219,0.6,0.335c-0.006,0.19-0.009,0.381,0.033,0.568c0.091,0.397,0.284,0.72,0.538,1.031
			c0.182,0.226,0.383,0.427,0.603,0.618c0.243,0.212,0.54,0.358,0.827,0.507c0.039,0.022,0.074,0.041,0.113,0.061
			c3.277,1.792,6.444,3.801,9.465,5.995c3.186,2.354,6.191,4.942,9.055,7.676h-0.002h0c1.659,1.607,3.242,3.283,4.694,5.072
			c1.105,1.406,2.136,2.864,3.07,4.385c0.606,1.028,1.158,2.087,1.646,3.173c0.24,0.565,0.452,1.133,0.631,1.717
			c0.132,0.463,0.246,0.934,0.331,1.411c0.019,0.132,0.036,0.264,0.05,0.4c-0.223,0.196-0.438,0.4-0.645,0.623
			c-0.457,0.496-0.728,1.133-0.863,1.786c-0.13,0.62-0.05,1.29,0.063,1.905c0.074,0.4,0.182,0.794,0.334,1.171
			c0.518,1.271,1.337,2.357,2.164,3.443c1.174,1.541,2.376,3.062,3.504,4.639C335.414,274.989,337.216,277.776,338.933,280.601z
			 M375.415,195.943c-0.003,0.014-0.003,0.028-0.006,0.039c0,0.005,0,0.014,0,0.019c-0.008,0.088-0.016,0.176-0.025,0.262
			c0-0.017,0.003-0.03,0.003-0.047c-0.003,0.027-0.005,0.055-0.008,0.083l0.003-0.003c-0.058,0.585-0.116,1.169-0.179,1.75
			c-0.309,2.831-0.678,5.664-1.185,8.467c-0.264,1.469-0.543,2.938-0.879,4.394c-0.006,0.019-0.011,0.041-0.014,0.061
			c0,0.003,0,0.006,0,0.006c-0.003,0.008-0.006,0.017-0.008,0.025c0,0.003,0,0.003,0,0.006c0,0,0,0.003-0.003,0.003
			c-0.019,0.074-0.035,0.149-0.052,0.223c-0.755,3.167-1.662,6.293-2.776,9.35c-0.813,2.109-1.733,4.173-2.8,6.163
			c-0.044,0.08-0.088,0.16-0.13,0.24c0.027-0.052,0.055-0.102,0.086-0.154c-0.033,0.058-0.066,0.118-0.096,0.176
			c-0.02,0.033-0.039,0.069-0.055,0.105c0-0.003,0-0.006,0.003-0.008c0.025-0.05,0.053-0.096,0.077-0.146
			c-1.147,2.062-2.434,4.027-3.815,5.94c-1.919,2.599-3.997,5.072-6.218,7.42c0.033-0.033,0.066-0.069,0.099-0.102
			c-0.075,0.077-0.146,0.154-0.221,0.229l-0.003,0.003c-0.003,0.006-0.008,0.008-0.014,0.014c-0.018,0.018-0.034,0.036-0.052,0.054
			c-2.603,2.702-5.408,5.176-8.314,7.539c-3.335,2.674-6.797,5.196-10.439,7.437c-1.539,0.939-3.109,1.83-4.69,2.693
			c-0.074-1.039-0.261-2.073-0.567-3.063c-0.529-1.712-1.326-3.368-2.222-4.917c-1.061-1.833-2.249-3.602-3.564-5.262
			c-1.191-1.502-2.445-2.938-3.787-4.308c-1.323-1.348-2.698-2.649-4.104-3.911c-2.784-2.5-5.686-4.862-8.763-6.996
			c-1.763-1.22-3.581-2.356-5.423-3.451c0.239-0.281,0.475-0.568,0.625-0.923c0.59-1.389,0.264-3.018-0.182-4.399
			c-0.461-1.422-1.078-2.77-1.784-4.088c-0.686-1.287-1.491-2.511-2.326-3.705c-0.764-1.097-1.549-2.178-2.368-3.233
			c-1.059-1.364-2.186-2.668-3.343-3.945c0.233-0.439,0.458-0.88,0.664-1.333c0.493-1.072,0.97-2.15,1.455-3.228
			c2.404-5.331,4.917-10.612,7.679-15.767c0,0.003,0,0.003,0,0.003c0-0.003,0.003-0.003,0.003-0.003v-0.003
			c0.008-0.014,0.019-0.03,0.025-0.044c0.028-0.052,0.055-0.102,0.083-0.154c0.653-1.204,1.318-2.395,1.996-3.586
			c2.977-5.232,6.221-10.309,9.73-15.199c-0.044,0.058-0.086,0.116-0.13,0.174c0.179-0.245,0.353-0.488,0.535-0.73
			c-0.005,0.006-0.011,0.011-0.016,0.019c0.005-0.008,0.011-0.016,0.016-0.025c3.276-4.482,6.812-8.782,10.627-12.813
			c2.821-2.935,5.8-5.707,8.962-8.273c2.065-1.648,4.201-3.225,6.445-4.62c1.105-0.667,2.233-1.282,3.407-1.819
			c0.659-0.287,1.323-0.546,2.006-0.764c0.499-0.138,1.001-0.256,1.508-0.35c0.447-0.064,0.893-0.105,1.342-0.13
			c0.535-0.008,1.069,0.006,1.601,0.047c0.584,0.063,1.163,0.157,1.739,0.278c0.582,0.146,1.152,0.32,1.715,0.524
			c0.521,0.21,1.028,0.444,1.524,0.703c0.637,0.361,1.249,0.753,1.841,1.177c0.656,0.493,1.282,1.017,1.883,1.577
			c0.422,0.411,0.835,0.833,1.229,1.271c0.215,0.243,0.43,0.488,0.64,0.736c0.03,0.041,0.063,0.08,0.096,0.119
			c0.05,0.061,0.099,0.121,0.149,0.182c0.033,0.047,0.066,0.091,0.102,0.132c0.86,1.108,1.676,2.255,2.415,3.448
			c0.052,0.088,0.107,0.176,0.162,0.265c0.99,1.673,1.866,3.396,2.677,5.16c1.108,2.522,2.073,5.107,2.88,7.743
			c-0.03-0.102-0.061-0.201-0.091-0.303c0.049,0.165,0.099,0.328,0.149,0.488c0,0.003,0,0.003,0,0.003
			c0,0.001,0.001,0.002,0.001,0.003c0,0.001,0,0.001,0,0.002c0,0.003,0.002,0.006,0.003,0.01c0-0.001,0-0.001-0.001-0.002
			c0.011,0.041,0.022,0.083,0.038,0.124c0.808,2.729,1.428,5.502,1.921,8.302c0.54,3.396,0.849,6.811,1.012,10.245
			c0.003,0.105,0.008,0.209,0.011,0.314c-0.003,0.083,0,0.165,0.008,0.248C376.113,185.405,375.884,190.692,375.415,195.943z"/>
		<path d="M294.515,198.501v0.003c0.003-0.008,0.005-0.014,0.008-0.022C294.52,198.487,294.518,198.495,294.515,198.501z"/>
		<path d="M380.313,196.536c0,0.001-0.001,0.002-0.001,0.003v0.003c0,0,0-0.001,0-0.001c-0.003,0.021-0.005,0.043-0.005,0.064
			c0.003-0.022,0.005-0.047,0.007-0.072c0-0.001,0-0.001,0-0.002c0,0,0,0.001,0,0.001c0-0.002,0.001-0.005,0.001-0.007
			C380.313,196.529,380.313,196.533,380.313,196.536z"/>
		<path d="M380.314,196.53c0.003-0.011,0.003-0.022,0.003-0.033c0,0.008,0,0.017-0.003,0.028
			C380.314,196.527,380.314,196.527,380.314,196.53z"/>
		<path d="M305.808,185.452c0,0,0,0,0-0.003c-0.008,0.014-0.014,0.025-0.019,0.039C305.794,185.477,305.802,185.463,305.808,185.452
			z"/>
		<path d="M372.944,160.882c0,0,0,0,0-0.003c-0.005-0.017-0.011-0.036-0.016-0.055C372.933,160.843,372.939,160.862,372.944,160.882
			z"/>
		<path d="M377.648,159.401c0,0,0,0.003,0,0.005c0.003,0.006,0.003,0.011,0.005,0.016
			C377.653,159.415,377.651,159.407,377.648,159.401z"/>
		<polygon points="371.521,145.195 371.521,145.198 371.523,145.198 		"/>
		<path d="M280.127,141.513c-0.055,0.096-0.108,0.196-0.16,0.292c0.012-0.023,0.026-0.045,0.038-0.068
			c0.006-0.01,0.012-0.021,0.017-0.031C280.058,141.643,280.094,141.576,280.127,141.513z"/>
		<path d="M271.692,159.967c0.009-0.024,0.02-0.047,0.029-0.071c0.029-0.077,0.058-0.155,0.087-0.232
			C271.769,159.766,271.731,159.865,271.692,159.967z"/>
		<path d="M271.499,160.482c-0.019,0.047-0.036,0.091-0.052,0.135c0.014-0.03,0.025-0.063,0.039-0.097
			C271.488,160.51,271.494,160.496,271.499,160.482z"/>
		<polygon points="313.308,156.826 313.308,156.829 313.311,156.835 		"/>
		<path d="M161.613,324.018c0.003-0.003,0.005-0.003,0.008-0.006c2.18-1.541,4.041-3.495,5.684-5.584
			c1.695-2.156,3.123-4.559,4.341-7.015c0.667-1.351,1.32-2.718,1.839-4.134c0.521-1.417,0.992-2.853,1.375-4.314
			c0.764-2.9,1.213-5.86,1.472-8.845c0.507-5.811,0.094-11.66-1.053-17.373c-0.579-2.872-1.331-5.703-2.255-8.487
			c-0.868-2.619-1.874-5.221-3.137-7.68c-0.223-0.424-0.452-0.846-0.689-1.265c0,0.03,0,0.061-0.003,0.091
			c-0.017,0.471-0.077,0.962-0.207,1.417c-0.13,0.452-0.347,0.863-0.601,1.251c0,0.003-0.003,0.003-0.003,0.003
			c-0.003,0.008-0.008,0.014-0.014,0.019c-0.019,0.03-0.039,0.06-0.058,0.091c0.011-0.019,0.022-0.036,0.033-0.055
			c-0.248,0.364-0.535,0.686-0.876,0.968c-0.298,0.245-0.659,0.433-1.009,0.587c-0.312,0.141-0.634,0.27-0.965,0.355
			c-0.408,0.11-0.813,0.168-1.235,0.187c-0.033,0-0.064,0-0.097,0c-0.138,0-0.278-0.011-0.414-0.019
			c-0.212-0.014-0.424-0.033-0.631-0.066c-0.342-0.049-0.678-0.132-1.009-0.226c-0.709-0.198-1.375-0.518-2.031-0.852
			c-0.419-0.21-0.827-0.452-1.224-0.711c-0.014-0.005-0.022-0.011-0.033-0.019c-0.005-0.005-0.013-0.008-0.018-0.013
			c0.002,0,0.002,0,0.002,0s-0.003,0-0.003-0.003c0,0.003,0,0.003,0,0.003c0,0-0.001-0.001-0.001-0.001
			c-0.003,0-0.005-0.003-0.005-0.005c0,0-0.001-0.001-0.001-0.001c0.002,0.001,0.003,0.002,0.005,0.002
			c-0.003,0-0.003-0.003-0.005-0.003h-0.001c-0.01-0.005-0.02-0.01-0.03-0.018c-0.003,0-0.003,0-0.006-0.003
			c0,0-0.003,0-0.003-0.003c-0.774-0.518-1.508-1.102-2.139-1.794c-0.612-0.67-1.122-1.414-1.549-2.211
			c0.006,0.011,0.011,0.025,0.017,0.036c-0.245-0.46-0.479-0.926-0.67-1.411c-0.111-0.287-0.212-0.573-0.298-0.865
			c-0.072-0.243-0.127-0.491-0.176-0.739c0,0,0,0,0,0.003c-0.008-0.039-0.016-0.074-0.022-0.113
			c-0.003-0.008-0.006-0.017-0.006-0.025c0,0,0,0.003,0,0.005c-0.08-0.422-0.127-0.846-0.151-1.273
			c-0.025-0.488,0.033-0.984,0.132-1.461c0.085-0.416,0.201-0.832,0.366-1.224c0.185-0.438,0.427-0.838,0.733-1.196
			c0-0.006,0.003-0.008,0.006-0.011c0.006-0.005,0.011-0.014,0.016-0.019c-0.003,0.006-0.006,0.008-0.008,0.014
			c0.199-0.229,0.408-0.447,0.651-0.628c0.24-0.182,0.504-0.325,0.772-0.461c0.339-0.168,0.7-0.278,1.072-0.339
			c-0.017-0.008-0.036-0.014-0.055-0.022c-0.758-0.289-1.513-0.551-2.307-0.717c-0.739-0.152-1.494-0.251-2.246-0.279
			c-1.612-0.055-3.261,0.077-4.829,0.458c-3.253,0.786-6.257,2.293-8.884,4.358c-1.285,1.006-2.473,2.1-3.58,3.297
			c-0.97,1.045-1.85,2.167-2.682,3.322c-0.014,0.019-0.027,0.036-0.041,0.055c-2.026,2.806-3.705,5.86-5.03,9.057
			c-1.185,2.858-2.042,5.855-2.657,8.889c-0.571,2.806-0.912,5.7-0.854,8.57c0.027,1.293,0.094,2.577,0.237,3.862
			c-0.008,0.813,0.019,1.626,0.088,2.436c0.143,1.731,0.474,3.407,0.94,5.074c0.601,2.103,1.42,4.17,2.486,6.083
			c1.147,2.056,2.467,4.021,4.129,5.703c2.161,2.186,4.625,4.019,7.401,5.353c2.627,1.26,5.488,2.045,8.385,2.324
			c0.667,0.064,1.337,0.113,2.01,0.11c0.116,0,0.229,0,0.344,0c0.08,0.003,0.16,0.006,0.243,0.006c0.334,0,0.67-0.033,0.992-0.052
			c0.355-0.022,0.708-0.061,1.064-0.099c3.093-0.35,6.185-1.221,8.972-2.613c1.464-0.73,2.831-1.604,4.093-2.641
			c1.188-0.979,2.268-2.067,3.236-3.264c0.08-0.099,0.163-0.201,0.24-0.303c-0.036,0.13-0.077,0.256-0.116,0.383
			c-0.011,0.033-0.022,0.069-0.033,0.102c-0.003,0.011-0.006,0.019-0.011,0.03c-0.436,1.312-0.962,2.591-1.544,3.848
			c-0.794,1.624-1.665,3.211-2.638,4.736c-0.783,1.194-1.596,2.354-2.503,3.451c-0.006,0.005-0.011,0.011-0.014,0.016
			c-0.898,1.05-1.849,2.043-2.864,2.977c-0.634,0.573-1.295,1.113-1.995,1.61c-0.212,0.146-0.43,0.281-0.653,0.405
			c-0.248,0.127-0.501,0.251-0.76,0.353c-0.223,0.027-0.43,0.248-0.353,0.504c0.052,0.185,0.223,0.281,0.389,0.281
			c0.03,0,0.063-0.005,0.094-0.011c0.237-0.011,0.471,0.003,0.711-0.033c0.535-0.077,1.05-0.267,1.557-0.455
			C159.592,325.324,160.628,324.704,161.613,324.018z"/>
		<path d="M196.055,239.428c0.287,1.48,0.728,2.938,1.216,4.363c0.386,1.128,0.821,2.235,1.301,3.327
			c0.19,0.584,0.391,1.166,0.606,1.745c0.386,1.039,0.789,2.067,1.235,3.082c0.482,1.094,1.02,2.158,1.58,3.214
			c1.092,2.059,2.384,4.005,3.784,5.863c3.49,4.625,7.894,8.495,12.77,11.593c4.931,3.131,10.474,5.334,16.216,6.409
			c2.685,0.502,5.394,0.805,8.123,0.805c0.248,0,0.496-0.003,0.744-0.008c2.867-0.058,5.703-0.369,8.501-0.987
			c2.693-0.595,5.29-1.522,7.85-2.528c1.254-0.491,2.483-1.047,3.704-1.626c0.576-0.273,1.15-0.56,1.684-0.907
			c0.383-0.248,0.747-0.524,1.119-0.788c0.064-0.047,0.13-0.085,0.196-0.124h0.003v-0.003c0.003,0,0.005-0.003,0.008-0.003
			c0.355-0.102,0.102-0.634-0.182-0.436c-0.005,0.003-0.011,0.008-0.016,0.011c-0.342,0.121-0.711,0.176-1.061,0.267
			c-0.653,0.165-1.296,0.364-1.94,0.557c-1.351,0.405-2.723,0.747-4.102,1.056c-0.053,0.011-0.102,0.022-0.154,0.033
			c-2.47,0.529-4.976,0.888-7.489,1.108c-1.268,0.102-2.538,0.179-3.809,0.176c-0.708-0.003-1.414-0.014-2.122-0.036
			c0.805-0.207,1.604-0.444,2.384-0.722c2.522-0.893,4.92-2.117,7.109-3.655c1.194-0.835,2.348-1.731,3.396-2.745
			c1.003-0.97,1.951-2.001,2.833-3.084c0.819-1.009,1.541-2.081,2.192-3.206c0.604-1.047,1.152-2.117,1.588-3.247
			c1.042-2.693,1.75-5.576,1.623-8.479c-0.127-2.894-0.918-5.728-2.059-8.377c-0.011-0.03-0.025-0.061-0.039-0.091
			c-0.011-0.027-0.022-0.052-0.033-0.077c-0.003-0.003-0.003-0.006-0.006-0.011c0-0.003-0.003-0.008-0.005-0.011
			c-0.446-1.006-0.943-1.979-1.502-2.924c-0.055-0.094-0.113-0.188-0.171-0.281c-0.033-0.058-0.066-0.116-0.102-0.171
			c-0.292-0.477-0.593-0.948-0.907-1.411c-1.565-2.315-3.385-4.484-5.358-6.464c-2.007-2.012-4.225-3.823-6.577-5.411
			c-4.804-3.242-10.132-5.769-15.678-7.453c-3.47-1.05-7.018-1.789-10.609-2.202c0.484,0.361,0.93,0.767,1.336,1.216
			c0.407,0.459,0.791,0.944,1.09,1.483c0.375,0.681,0.634,1.409,0.799,2.169c0.083,0.378,0.121,0.761,0.118,1.149
			c-0.006,0.402-0.036,0.821-0.154,1.207c-0.215,0.714-0.573,1.364-1.009,1.965c-0.843,1.158-2.006,2.056-3.299,2.663
			c-1.196,0.562-2.5,0.819-3.812,0.882c-0.207,0.011-0.416,0.016-0.623,0.016c-1.083,0-2.169-0.135-3.208-0.433
			c-0.65-0.182-1.284-0.422-1.888-0.725c-0.527-0.262-1.02-0.588-1.489-0.937c-0.877-0.66-1.683-1.48-2.128-2.498
			c-0.423-0.959-0.563-1.999-0.471-3.04c0-0.007,0-0.015,0.002-0.022c0.003-0.036,0.006-0.072,0.011-0.11
			c0,0.011-0.003,0.022-0.003,0.033c0.036-0.298,0.088-0.592,0.157-0.887c0-0.003,0-0.006,0.003-0.006c0-0.003,0-0.003,0-0.006
			c0.003-0.016,0.008-0.03,0.011-0.044c0.171-0.686,0.43-1.345,0.761-1.971c0.344-0.642,0.752-1.251,1.268-1.77
			c0.154-0.157,0.325-0.3,0.504-0.433c-0.822,0.096-1.643,0.22-2.451,0.389c-1.497,0.309-2.958,0.799-4.35,1.422
			c-1.356,0.606-2.616,1.425-3.768,2.362c-4.551,3.699-6.122,9.95-5.772,15.593C195.622,236.647,195.787,238.042,196.055,239.428z"
			/>
	</g>
</g>
</svg>
